<svg id="Layer_1" data-name="Layer 1" xmlns="http://www.w3.org/2000/svg" viewBox="0 0 332.03 242.38"><defs><style>.cls-1{fill:#5a4854;}.cls-1,.cls-10,.cls-11,.cls-12,.cls-13,.cls-14,.cls-15,.cls-16,.cls-17,.cls-18,.cls-19,.cls-2,.cls-20,.cls-21,.cls-22,.cls-23,.cls-24,.cls-3,.cls-4,.cls-5,.cls-6,.cls-7,.cls-8,.cls-9{stroke:#231f20;stroke-miterlimit:10;}.cls-2{fill:#74576a;}.cls-3{fill:#8c627e;}.cls-4{fill:#d998c1;}.cls-5{fill:#a57093;}.cls-6{fill:#661714;}.cls-7{fill:#8d211d;}.cls-8{fill:#b22c26;}.cls-9{fill:#ef4130;}.cls-10{fill:#d93328;}.cls-11{fill:#e3ab4a;}.cls-12{fill:#dbb75c;}.cls-13{fill:#9a4930;}.cls-14{fill:#cc6240;}.cls-15{fill:#fdbb45;}.cls-16{fill:#ffce6f;}.cls-17{fill:#fbb672;}.cls-18{fill:#666154;}.cls-19{fill:#8c8573;}.cls-20{fill:#b3aa93;}.cls-21{fill:#fff2d1;}.cls-22{fill:#d9cdb2;}.cls-23{fill:#f68c35;}.cls-24{fill:#ee9621;}</style></defs><rect class="cls-1" x="0.5" y="0.5" width="41.38" height="41.38"/><rect class="cls-2" x="48.78" y="0.5" width="41.38" height="41.38"/><rect class="cls-3" x="97.05" y="0.5" width="41.38" height="41.38"/><rect class="cls-4" x="193.6" y="0.5" width="41.38" height="41.38"/><rect class="cls-5" x="145.33" y="0.5" width="41.38" height="41.38"/><rect class="cls-6" x="0.5" y="200.5" width="41.38" height="41.38"/><rect class="cls-7" x="48.78" y="200.5" width="41.38" height="41.38"/><rect class="cls-8" x="97.05" y="200.5" width="41.38" height="41.38"/><rect class="cls-9" x="193.6" y="200.5" width="41.38" height="41.38"/><rect class="cls-10" x="145.33" y="200.5" width="41.38" height="41.38"/><rect class="cls-11" x="0.5" y="100.5" width="41.38" height="41.38"/><rect class="cls-12" x="48.78" y="100.5" width="41.38" height="41.38"/><rect class="cls-13" x="0.5" y="150.5" width="41.38" height="41.38"/><rect class="cls-14" x="48.78" y="150.5" width="41.38" height="41.38"/><rect class="cls-15" x="97.05" y="100.5" width="41.38" height="41.38"/><rect class="cls-16" x="193.6" y="100.5" width="41.38" height="41.38"/><rect class="cls-17" x="145.33" y="100.5" width="41.38" height="41.38"/><rect class="cls-18" x="0.5" y="50.5" width="41.38" height="41.38"/><rect class="cls-19" x="48.78" y="50.5" width="41.38" height="41.38"/><rect class="cls-20" x="97.05" y="50.5" width="41.38" height="41.38"/><rect class="cls-21" x="193.6" y="50.5" width="41.38" height="41.38"/><rect class="cls-22" x="145.33" y="50.5" width="41.38" height="41.38"/><rect class="cls-23" x="290.16" y="100.5" width="41.38" height="41.38"/><rect class="cls-24" x="241.88" y="100.5" width="41.38" height="41.38"/></svg>