<?xml version="1.0" encoding="UTF-8"?>
<svg xmlns="http://www.w3.org/2000/svg" xmlns:xlink="http://www.w3.org/1999/xlink"
     width="611.9999999999916" height="791.9999999999891" viewBox="0 -791.9999999999891 611.9999999999916 791.9999999999891">
<defs>
<path d="M112.5,-42.8346456692913 L207.5,-42.8346456692913" stroke-width="0" fill="none" id="d0" />
<path d="M86.25,-49.92125984251955 L181.25,-49.92125984251955" stroke-width="0" fill="none" id="d1" />
<path d="M82.5,-58.42519685039345 L177.5,-58.42519685039345" stroke-width="0" fill="none" id="d2" />
<path d="M105.0,-240.40944881889487 L200.0,-240.40944881889487" stroke-width="0" fill="none" id="d3" />
<path d="M86.25,-248.34645669291052 L181.25,-248.34645669291052" stroke-width="0" fill="none" id="d4" />
<path d="M105.0,-256.28346456692617 L200.0,-256.28346456692617" stroke-width="0" fill="none" id="d5" />
<path d="M105.0,-475.96850393700186 L200.0,-475.96850393700186" stroke-width="0" fill="none" id="d6" />
<path d="M105.0,-504.3149606299148 L200.0,-504.3149606299148" stroke-width="0" fill="none" id="d7" />
<path d="M86.25,-531.2440944881821 L181.25,-531.2440944881821" stroke-width="0" fill="none" id="d8" />
<path d="M86.25,-614.0157480314881 L181.25,-614.0157480314881" stroke-width="0" fill="none" id="d9" />
<path d="M86.25,-620.251968503929 L181.25,-620.251968503929" stroke-width="0" fill="none" id="d10" />
<path d="M86.25,-623.0866141732204 L181.25,-623.0866141732204" stroke-width="0" fill="none" id="d11" />
<path d="M90.0,-731.370078740148 L185.0,-731.370078740148" stroke-width="0" fill="none" id="d12" />
<path d="M67.5,-736.1889763779432 L162.5,-736.1889763779432" stroke-width="0" fill="none" id="d13" />
<path d="M86.25,-737.0393700787306 L181.25,-737.0393700787306" stroke-width="0" fill="none" id="d14" />
<path d="M67.5,-752.6299212598326 L162.5,-752.6299212598326" stroke-width="0" fill="none" id="d15" />
<path d="M82.5,-754.8976377952657 L177.5,-754.8976377952657" stroke-width="0" fill="none" id="d16" />
<path d="M82.5,-757.1653543306987 L177.5,-757.1653543306987" stroke-width="0" fill="none" id="d17" />
<path d="M78.75,-770.4881889763678 L173.75,-770.4881889763678" stroke-width="0" fill="none" id="d18" />
<path d="M67.5,-771.0551181102261 L162.5,-771.0551181102261" stroke-width="0" fill="none" id="d19" />
<path d="M78.75,-771.6220472440843 L173.75,-771.6220472440843" stroke-width="0" fill="none" id="d20" />
<clipPath id="d21">
<path d="M40.0,-786.6456692913282 L70.0,-786.6456692913282 L70.0,-786.9999999999891 L40.0,-786.9999999999891" />
</clipPath>
<clipPath id="d22">
<path d="M155.0,-40 L185.0,-40 L185.0,-47.015748031496514 L155.0,-47.015748031496514" />
</clipPath>
<path d="M193.75,-51.83464566929149 L288.75,-51.83464566929149" stroke-width="0" fill="none" id="d23" />
<path d="M193.75,-54.95275590551188 L288.75,-54.95275590551188" stroke-width="0" fill="none" id="d24" />
<path d="M201.25,-62.03937007874015 L296.25,-62.03937007874015" stroke-width="0" fill="none" id="d25" />
<path d="M197.5,-76.21259842519669 L292.5,-76.21259842519669" stroke-width="0" fill="none" id="d26" />
<path d="M201.25,-77.06299212598401 L296.25,-77.06299212598401" stroke-width="0" fill="none" id="d27" />
<path d="M197.5,-81.59842519684997 L292.5,-81.59842519684997" stroke-width="0" fill="none" id="d28" />
<path d="M193.75,-96.90551181102302 L288.75,-96.90551181102302" stroke-width="0" fill="none" id="d29" />
<path d="M167.5,-143.39370078740035 L262.5,-143.39370078740035" stroke-width="0" fill="none" id="d30" />
<path d="M227.5,-194.41732283464376 L322.5,-194.41732283464376" stroke-width="0" fill="none" id="d31" />
<path d="M201.25,-320.84251968503577 L296.25,-320.84251968503577" stroke-width="0" fill="none" id="d32" />
<path d="M201.25,-337.8503937007837 L296.25,-337.8503937007837" stroke-width="0" fill="none" id="d33" />
<path d="M227.5,-356.27559055117706 L322.5,-356.27559055117706" stroke-width="0" fill="none" id="d34" />
<path d="M201.25,-479.0157480314904 L296.25,-479.0157480314904" stroke-width="0" fill="none" id="d35" />
<path d="M227.5,-493.1889763779469 L322.5,-493.1889763779469" stroke-width="0" fill="none" id="d36" />
<path d="M205.0,-504.5275590551122 L300.0,-504.5275590551122" stroke-width="0" fill="none" id="d37" />
<path d="M197.5,-595.2362204724336 L292.5,-595.2362204724336" stroke-width="0" fill="none" id="d38" />
<path d="M182.5,-602.3228346456619 L277.5,-602.3228346456619" stroke-width="0" fill="none" id="d39" />
<path d="M182.5,-609.4094488188903 L277.5,-609.4094488188903" stroke-width="0" fill="none" id="d40" />
<path d="M193.75,-620.7480314960555 L288.75,-620.7480314960555" stroke-width="0" fill="none" id="d41" />
<path d="M220.0,-632.6535433070788 L315.0,-632.6535433070788" stroke-width="0" fill="none" id="d42" />
<path d="M197.5,-638.8897637795195 L292.5,-638.8897637795195" stroke-width="0" fill="none" id="d43" />
<path d="M201.25,-643.7086614173147 L296.25,-643.7086614173147" stroke-width="0" fill="none" id="d44" />
<path d="M201.25,-647.9606299212518 L296.25,-647.9606299212518" stroke-width="0" fill="none" id="d45" />
<path d="M197.5,-651.3622047244014 L292.5,-651.3622047244014" stroke-width="0" fill="none" id="d46" />
<path d="M220.0,-655.3307086614092 L315.0,-655.3307086614092" stroke-width="0" fill="none" id="d47" />
<path d="M197.5,-666.6692913385743 L292.5,-666.6692913385743" stroke-width="0" fill="none" id="d48" />
<path d="M197.5,-678.0078740157396 L292.5,-678.0078740157396" stroke-width="0" fill="none" id="d49" />
<path d="M197.5,-682.8267716535347 L292.5,-682.8267716535347" stroke-width="0" fill="none" id="d50" />
<path d="M182.5,-687.0787401574715 L277.5,-687.0787401574715" stroke-width="0" fill="none" id="d51" />
<path d="M197.5,-690.1968503936921 L292.5,-690.1968503936921" stroke-width="0" fill="none" id="d52" />
<path d="M197.5,-695.2992125984166 L292.5,-695.2992125984166" stroke-width="0" fill="none" id="d53" />
<path d="M201.25,-702.3858267716449 L296.25,-702.3858267716449" stroke-width="0" fill="none" id="d54" />
<path d="M201.25,-706.3543307086526 L296.25,-706.3543307086526" stroke-width="0" fill="none" id="d55" />
<path d="M201.25,-710.8897637795186 L296.25,-710.8897637795186" stroke-width="0" fill="none" id="d56" />
<path d="M182.5,-715.1417322834557 L277.5,-715.1417322834557" stroke-width="0" fill="none" id="d57" />
<path d="M201.25,-717.4094488188887 L296.25,-717.4094488188887" stroke-width="0" fill="none" id="d58" />
<path d="M197.5,-719.6771653543218 L292.5,-719.6771653543218" stroke-width="0" fill="none" id="d59" />
<path d="M197.5,-726.1968503936919 L292.5,-726.1968503936919" stroke-width="0" fill="none" id="d60" />
<path d="M182.5,-732.9999999999909 L277.5,-732.9999999999909" stroke-width="0" fill="none" id="d61" />
<path d="M193.75,-734.7007874015657 L288.75,-734.7007874015657" stroke-width="0" fill="none" id="d62" />
<path d="M227.5,-735.8346456692822 L322.5,-735.8346456692822" stroke-width="0" fill="none" id="d63" />
<path d="M193.75,-737.5354330708569 L288.75,-737.5354330708569" stroke-width="0" fill="none" id="d64" />
<path d="M227.5,-741.787401574794 L322.5,-741.787401574794" stroke-width="0" fill="none" id="d65" />
<path d="M197.5,-756.2440944881797 L292.5,-756.2440944881797" stroke-width="0" fill="none" id="d66" />
<clipPath id="d67">
<path d="M155.0,-767.5826771653449 L192.5,-767.5826771653449 L192.5,-786.9999999999891 L155.0,-786.9999999999891" />
</clipPath>
<clipPath id="d68">
<path d="M270.0,-40 L307.5,-40 L307.5,-43.25984251968612 L270.0,-43.25984251968612" />
</clipPath>
<path d="M320.0,-355.637795275587 L415.0,-355.637795275587" stroke-width="0" fill="none" id="d69" />
<path d="M320.0,-359.88976377952383 L415.0,-359.88976377952383" stroke-width="0" fill="none" id="d70" />
<path d="M327.5,-366.4094488188939 L422.5,-366.4094488188939" stroke-width="0" fill="none" id="d71" />
<path d="M327.5,-372.07874015747655 L422.5,-372.07874015747655" stroke-width="0" fill="none" id="d72" />
<path d="M316.25,-376.89763779527175 L411.25,-376.89763779527175" stroke-width="0" fill="none" id="d73" />
<path d="M297.5,-380.58267716535056 L392.5,-380.58267716535056" stroke-width="0" fill="none" id="d74" />
<path d="M335.0,-383.7007874015711 L430.0,-383.7007874015711" stroke-width="0" fill="none" id="d75" />
<path d="M312.5,-385.68503937007495 L407.5,-385.68503937007495" stroke-width="0" fill="none" id="d76" />
<clipPath id="d77">
<path d="M270.0,-775.7322834645574 L307.5,-775.7322834645574 L307.5,-786.9999999999891 L270.0,-786.9999999999891" />
</clipPath>
<clipPath id="d78">
<path d="M385.0,-40 L422.5,-40 L422.5,-53.11023622047378 L385.0,-53.11023622047378" />
</clipPath>
<path d="M48.0,-33.5 L48.5,60" stroke-width="0" fill="none" id="d79" />
<path d="M55.5,-23.5 L56.0,60" stroke-width="0" fill="none" id="d80" />
<path d="M63.0,-33.5 L63.5,60" stroke-width="0" fill="none" id="d81" />
<path d="M70.5,-23.5 L71.0,60" stroke-width="0" fill="none" id="d82" />
<path d="M74.25,-33.5 L74.75,60" stroke-width="0" fill="none" id="d83" />
<path d="M78.0,-23.5 L78.5,60" stroke-width="0" fill="none" id="d84" />
<path d="M81.75,-33.5 L82.25,60" stroke-width="0" fill="none" id="d85" />
<path d="M85.5,-23.5 L86.0,60" stroke-width="0" fill="none" id="d86" />
<path d="M93.0,-33.5 L93.5,60" stroke-width="0" fill="none" id="d87" />
<path d="M100.5,-23.5 L101.0,60" stroke-width="0" fill="none" id="d88" />
<path d="M108.0,-33.5 L108.5,60" stroke-width="0" fill="none" id="d89" />
<path d="M115.5,-23.5 L116.0,60" stroke-width="0" fill="none" id="d90" />
<path d="M163.0,-33.5 L163.5,60" stroke-width="0" fill="none" id="d91" />
<path d="M170.5,-23.5 L171.0,60" stroke-width="0" fill="none" id="d92" />
<path d="M178.0,-33.5 L178.5,60" stroke-width="0" fill="none" id="d93" />
<path d="M185.5,-23.5 L186.0,60" stroke-width="0" fill="none" id="d94" />
<path d="M189.25,-33.5 L189.75,60" stroke-width="0" fill="none" id="d95" />
<path d="M193.0,-23.5 L193.5,60" stroke-width="0" fill="none" id="d96" />
<path d="M196.75,-33.5 L197.25,60" stroke-width="0" fill="none" id="d97" />
<path d="M200.5,-23.5 L201.0,60" stroke-width="0" fill="none" id="d98" />
<path d="M208.0,-33.5 L208.5,60" stroke-width="0" fill="none" id="d99" />
<path d="M215.5,-23.5 L216.0,60" stroke-width="0" fill="none" id="d100" />
<path d="M223.0,-33.5 L223.5,60" stroke-width="0" fill="none" id="d101" />
<path d="M230.5,-23.5 L231.0,60" stroke-width="0" fill="none" id="d102" />
<path d="M278.0,-33.5 L278.5,60" stroke-width="0" fill="none" id="d103" />
<path d="M285.5,-23.5 L286.0,60" stroke-width="0" fill="none" id="d104" />
<path d="M293.0,-33.5 L293.5,60" stroke-width="0" fill="none" id="d105" />
<path d="M300.5,-23.5 L301.0,60" stroke-width="0" fill="none" id="d106" />
<path d="M304.25,-33.5 L304.75,60" stroke-width="0" fill="none" id="d107" />
<path d="M308.0,-23.5 L308.5,60" stroke-width="0" fill="none" id="d108" />
<path d="M311.75,-33.5 L312.25,60" stroke-width="0" fill="none" id="d109" />
<path d="M315.5,-23.5 L316.0,60" stroke-width="0" fill="none" id="d110" />
<path d="M323.0,-33.5 L323.5,60" stroke-width="0" fill="none" id="d111" />
<path d="M330.5,-23.5 L331.0,60" stroke-width="0" fill="none" id="d112" />
<path d="M338.0,-33.5 L338.5,60" stroke-width="0" fill="none" id="d113" />
<path d="M345.5,-23.5 L346.0,60" stroke-width="0" fill="none" id="d114" />
<path d="M393.0,-33.5 L393.5,60" stroke-width="0" fill="none" id="d115" />
<path d="M400.5,-23.5 L401.0,60" stroke-width="0" fill="none" id="d116" />
<path d="M408.0,-33.5 L408.5,60" stroke-width="0" fill="none" id="d117" />
<path d="M415.5,-23.5 L416.0,60" stroke-width="0" fill="none" id="d118" />
<path d="M419.25,-33.5 L419.75,60" stroke-width="0" fill="none" id="d119" />
<path d="M423.0,-23.5 L423.5,60" stroke-width="0" fill="none" id="d120" />
<path d="M426.75,-33.5 L427.25,60" stroke-width="0" fill="none" id="d121" />
<path d="M430.5,-23.5 L431.0,60" stroke-width="0" fill="none" id="d122" />
<path d="M438.0,-33.5 L438.5,60" stroke-width="0" fill="none" id="d123" />
<path d="M445.5,-23.5 L446.0,60" stroke-width="0" fill="none" id="d124" />
<path d="M453.0,-33.5 L453.5,60" stroke-width="0" fill="none" id="d125" />
<path d="M460.5,-23.5 L461.0,60" stroke-width="0" fill="none" id="d126" />
</defs>
<path d="M40.0,-40.0 L107.5,-40.0 L107.5,-45.669291338582596 L40.0,-45.669291338582596 Z" fill="#661714" stroke="black" stroke-width="0.5" />
<text font-size="9" text-anchor="start"><textPath xlink:href="#d0" startOffset="0">
<tspan dy="0.4em">a</tspan>
</textPath></text>
<path d="M40.0,-45.669291338582596 L81.25,-45.669291338582596 L81.25,-54.1732283464565 L40.0,-54.1732283464565 Z" fill="#DBB75C" stroke="black" stroke-width="0.5" />
<text font-size="9" text-anchor="start"><textPath xlink:href="#d1" startOffset="0">
<tspan dy="0.4em">b</tspan>
</textPath></text>
<path d="M40.0,-54.1732283464565 L77.5,-54.1732283464565 L77.5,-62.6771653543304 L40.0,-62.6771653543304 Z" fill="#DBB75C" stroke="black" stroke-width="0.5" />
<text font-size="9" text-anchor="start"><textPath xlink:href="#d2" startOffset="0">
<tspan dy="0.4em">c</tspan>
</textPath></text>
<path d="M40.0,-62.6771653543304 L81.25,-62.6771653543304 L81.25,-76.8503937007869 L40.0,-76.8503937007869 Z" fill="#FBB672" stroke="black" stroke-width="0.5" />
<path d="M40.0,-76.8503937007869 L77.5,-76.8503937007869 L77.5,-77.41732283464515 L40.0,-77.41732283464515 Z" fill="#DBB75C" stroke="black" stroke-width="0.5" />
<path d="M40.0,-77.41732283464515 L81.25,-77.41732283464515 L81.25,-83.08661417322776 L40.0,-83.08661417322776 Z" fill="#DBB75C" stroke="black" stroke-width="0.5" />
<path d="M40.0,-83.08661417322776 L81.25,-83.08661417322776 L81.25,-88.75590551181035 L40.0,-88.75590551181035 Z" fill="#DBB75C" stroke="black" stroke-width="0.5" />
<path d="M40.0,-88.75590551181035 L77.5,-88.75590551181035 L77.5,-100.09448818897556 L40.0,-100.09448818897556 Z" fill="#FBB672" stroke="black" stroke-width="0.5" />
<path d="M40.0,-100.09448818897556 L77.5,-100.09448818897556 L77.5,-105.76377952755816 L40.0,-105.76377952755816 Z" fill="#E3AB4A" stroke="black" stroke-width="0.5" />
<path d="M40.0,-105.76377952755816 L81.25,-105.76377952755816 L81.25,-117.10236220472335 L40.0,-117.10236220472335 Z" fill="#DBB75C" stroke="black" stroke-width="0.5" />
<path d="M40.0,-117.10236220472335 L77.5,-117.10236220472335 L77.5,-122.77165354330594 L40.0,-122.77165354330594 Z" fill="#FBB672" stroke="black" stroke-width="0.5" />
<path d="M40.0,-122.77165354330594 L81.25,-122.77165354330594 L81.25,-134.11023622047117 L40.0,-134.11023622047117 Z" fill="#DBB75C" stroke="black" stroke-width="0.5" />
<path d="M40.0,-134.11023622047117 L47.5,-134.11023622047117 L47.5,-185.13385826771457 L40.0,-185.13385826771457 Z" fill="#FFFFFF" stroke="black" stroke-width="0.5" />
<path d="M40.0,-185.13385826771457 L92.5,-185.13385826771457 L92.5,-187.96850393700586 L40.0,-187.96850393700586 Z" fill="#E3AB4A" stroke="black" stroke-width="0.5" />
<path d="M40.0,-187.96850393700586 L81.25,-187.96850393700586 L81.25,-189.10236220472237 L40.0,-189.10236220472237 Z" fill="#DBB75C" stroke="black" stroke-width="0.5" />
<path d="M40.0,-189.10236220472237 L107.5,-189.10236220472237 L107.5,-191.9370078740137 L40.0,-191.9370078740137 Z" fill="#661714" stroke="black" stroke-width="0.5" />
<path d="M40.0,-191.9370078740137 L62.5,-191.9370078740137 L62.5,-193.0708661417302 L40.0,-193.0708661417302 Z" fill="#807969" stroke="black" stroke-width="0.5" />
<path d="M40.0,-193.0708661417302 L73.75,-193.0708661417302 L73.75,-199.8740157480293 L40.0,-199.8740157480293 Z" fill="#DBB75C" stroke="black" stroke-width="0.5" />
<path d="M40.0,-199.8740157480293 L77.5,-199.8740157480293 L77.5,-228.2204724409423 L40.0,-228.2204724409423 Z" fill="#FBB672" stroke="black" stroke-width="0.5" />
<path d="M40.0,-228.2204724409423 L77.5,-228.2204724409423 L77.5,-239.5590551181075 L40.0,-239.5590551181075 Z" fill="#DBB75C" stroke="black" stroke-width="0.5" />
<path d="M40.0,-239.5590551181075 L100.0,-239.5590551181075 L100.0,-241.25984251968228 L40.0,-241.25984251968228 Z" fill="#661714" stroke="black" stroke-width="0.5" />
<text font-size="9" text-anchor="start"><textPath xlink:href="#d3" startOffset="0">
<tspan dy="0.4em">a</tspan>
</textPath></text>
<path d="M40.0,-241.25984251968228 L81.25,-241.25984251968228 L81.25,-255.4330708661388 L40.0,-255.4330708661388 Z" fill="#DBB75C" stroke="black" stroke-width="0.5" />
<text font-size="9" text-anchor="start"><textPath xlink:href="#d4" startOffset="0">
<tspan dy="0.4em">b</tspan>
</textPath></text>
<path d="M40.0,-255.4330708661388 L100.0,-255.4330708661388 L100.0,-257.13385826771355 L40.0,-257.13385826771355 Z" fill="#661714" stroke="black" stroke-width="0.5" />
<text font-size="9" text-anchor="start"><textPath xlink:href="#d5" startOffset="0">
<tspan dy="0.4em">c</tspan>
</textPath></text>
<path d="M40.0,-257.13385826771355 L81.25,-257.13385826771355 L81.25,-258.26771653543005 L40.0,-258.26771653543005 Z" fill="#DBB75C" stroke="black" stroke-width="0.5" />
<path d="M40.0,-258.26771653543005 L100.0,-258.26771653543005 L100.0,-259.96850393700487 L40.0,-259.96850393700487 Z" fill="#661714" stroke="black" stroke-width="0.5" />
<path d="M40.0,-259.96850393700487 L81.25,-259.96850393700487 L81.25,-262.8031496062962 L40.0,-262.8031496062962 Z" fill="#DBB75C" stroke="black" stroke-width="0.5" />
<path d="M40.0,-262.8031496062962 L47.5,-262.8031496062962 L47.5,-268.47244094487877 L40.0,-268.47244094487877 Z" fill="#FFFFFF" stroke="black" stroke-width="0.5" />
<path d="M40.0,-268.47244094487877 L81.25,-268.47244094487877 L81.25,-274.14173228346135 L40.0,-274.14173228346135 Z" fill="#FDBB45" stroke="black" stroke-width="0.5" />
<path d="M40.0,-274.14173228346135 L77.5,-274.14173228346135 L77.5,-275.27559055117786 L40.0,-275.27559055117786 Z" fill="#DBB75C" stroke="black" stroke-width="0.5" />
<path d="M40.0,-275.27559055117786 L77.5,-275.27559055117786 L77.5,-309.29133858267346 L40.0,-309.29133858267346 Z" fill="#DBB75C" stroke="black" stroke-width="0.5" />
<path d="M40.0,-309.29133858267346 L77.5,-309.29133858267346 L77.5,-311.5590551181065 L40.0,-311.5590551181065 Z" fill="#DBB75C" stroke="black" stroke-width="0.5" />
<path d="M40.0,-311.5590551181065 L77.5,-311.5590551181065 L77.5,-320.06299212598043 L40.0,-320.06299212598043 Z" fill="#E3AB4A" stroke="black" stroke-width="0.5" />
<path d="M40.0,-320.06299212598043 L77.5,-320.06299212598043 L77.5,-331.4015748031456 L40.0,-331.4015748031456 Z" fill="#DBB75C" stroke="black" stroke-width="0.5" />
<path d="M40.0,-331.4015748031456 L85.0,-331.4015748031456 L85.0,-333.1023622047204 L40.0,-333.1023622047204 Z" fill="#DBB75C" stroke="black" stroke-width="0.5" />
<path d="M40.0,-333.1023622047204 L81.25,-333.1023622047204 L81.25,-347.2755905511769 L40.0,-347.2755905511769 Z" fill="#E3AB4A" stroke="black" stroke-width="0.5" />
<path d="M40.0,-347.2755905511769 L77.5,-347.2755905511769 L77.5,-348.97637795275165 L40.0,-348.97637795275165 Z" fill="#FBB672" stroke="black" stroke-width="0.5" />
<path d="M40.0,-348.97637795275165 L100.0,-348.97637795275165 L100.0,-357.48031496062555 L40.0,-357.48031496062555 Z" fill="#661714" stroke="black" stroke-width="0.5" />
<path d="M40.0,-357.48031496062555 L81.25,-357.48031496062555 L81.25,-371.65354330708203 L40.0,-371.65354330708203 Z" fill="#FBB672" stroke="black" stroke-width="0.5" />
<path d="M40.0,-371.65354330708203 L81.25,-371.65354330708203 L81.25,-377.3228346456646 L40.0,-377.3228346456646 Z" fill="#DBB75C" stroke="black" stroke-width="0.5" />
<path d="M40.0,-377.3228346456646 L81.25,-377.3228346456646 L81.25,-385.8267716535385 L40.0,-385.8267716535385 Z" fill="#DBB75C" stroke="black" stroke-width="0.5" />
<path d="M40.0,-385.8267716535385 L92.5,-385.8267716535385 L81.25,-398.8661417322785 L40.0,-398.8661417322785 Z" fill="#E3AB4A" stroke="black" stroke-width="0.5" />
<path d="M40.0,-398.8661417322785 L100.0,-398.8661417322785 L100.0,-399.43307086613675 L40.0,-399.43307086613675 Z" fill="#661714" stroke="black" stroke-width="0.5" />
<path d="M40.0,-399.43307086613675 L77.5,-399.43307086613675 L77.5,-402.26771653542806 L40.0,-402.26771653542806 Z" fill="#E3AB4A" stroke="black" stroke-width="0.5" />
<path d="M40.0,-402.26771653542806 L107.5,-402.26771653542806 L100.0,-427.7795275590497 L40.0,-427.7795275590497 Z" fill="#EF4130" stroke="black" stroke-width="0.5" />
<path d="M40.0,-427.7795275590497 L81.25,-427.7795275590497 L81.25,-439.11811023621493 L40.0,-439.11811023621493 Z" fill="#FBB672" stroke="black" stroke-width="0.5" />
<path d="M40.0,-439.11811023621493 L81.25,-439.11811023621493 L81.25,-453.2913385826714 L40.0,-453.2913385826714 Z" fill="#FBB672" stroke="black" stroke-width="0.5" />
<path d="M40.0,-453.2913385826714 L77.5,-453.2913385826714 L77.5,-461.7952755905453 L40.0,-461.7952755905453 Z" fill="#FBB672" stroke="black" stroke-width="0.5" />
<path d="M40.0,-461.7952755905453 L100.0,-461.7952755905453 L100.0,-490.14173228345834 L40.0,-490.14173228345834 Z" fill="#EF4130" stroke="black" stroke-width="0.5" />
<text font-size="9" text-anchor="start"><textPath xlink:href="#d6" startOffset="0">
<tspan dy="0.4em">a</tspan>
</textPath></text>
<path d="M40.0,-490.14173228345834 L100.0,-490.14173228345834 L100.0,-518.4881889763712 L40.0,-518.4881889763712 Z" fill="#B22C26" stroke="black" stroke-width="0.5" />
<text font-size="9" text-anchor="start"><textPath xlink:href="#d7" startOffset="0">
<tspan dy="0.4em">b</tspan>
</textPath></text>
<path d="M40.0,-518.4881889763712 L81.25,-518.4881889763712 L81.25,-543.999999999993 L40.0,-543.999999999993 Z" fill="#DBB75C" stroke="black" stroke-width="0.5" />
<text font-size="9" text-anchor="start"><textPath xlink:href="#d8" startOffset="0">
<tspan dy="0.4em">c</tspan>
</textPath></text>
<path d="M40.0,-543.999999999993 L77.5,-543.999999999993 L77.5,-561.0078740157409 L40.0,-561.0078740157409 Z" fill="#FDBB45" stroke="black" stroke-width="0.5" />
<path d="M40.0,-561.0078740157409 L73.75,-561.0078740157409 L73.75,-569.5118110236148 L40.0,-569.5118110236148 Z" fill="#DBB75C" stroke="black" stroke-width="0.5" />
<path d="M40.0,-569.5118110236148 L62.5,-569.5118110236148 L62.5,-570.078740157473 L40.0,-570.078740157473 Z" fill="#807969" stroke="black" stroke-width="0.5" />
<path d="M40.0,-570.078740157473 L100.0,-570.078740157473 L107.5,-576.8818897637722 L40.0,-576.8818897637722 Z" fill="#B22C26" stroke="black" stroke-width="0.5" />
<path d="M40.0,-576.8818897637722 L100.0,-576.8818897637722 L107.5,-580.8503937007799 L40.0,-580.8503937007799 Z" fill="#B22C26" stroke="black" stroke-width="0.5" />
<path d="M40.0,-580.8503937007799 L85.0,-580.8503937007799 L85.0,-583.6850393700713 L40.0,-583.6850393700713 Z" fill="#FDBB45" stroke="black" stroke-width="0.5" />
<path d="M40.0,-583.6850393700713 L85.0,-583.6850393700713 L85.0,-600.6929133858191 L40.0,-600.6929133858191 Z" fill="#DBB75C" stroke="black" stroke-width="0.5" />
<path d="M40.0,-600.6929133858191 L85.0,-600.6929133858191 L85.0,-609.7637795275512 L40.0,-609.7637795275512 Z" fill="#DBB75C" stroke="black" stroke-width="0.5" />
<path d="M40.0,-609.7637795275512 L81.25,-609.7637795275512 L81.25,-618.267716535425 L40.0,-618.267716535425 Z" fill="#E3AB4A" stroke="black" stroke-width="0.5" />
<text font-size="9" text-anchor="start"><textPath xlink:href="#d9" startOffset="0">
<tspan dy="0.4em">a</tspan>
</textPath></text>
<path d="M40.0,-618.267716535425 L81.25,-618.267716535425 L81.25,-622.2362204724329 L40.0,-622.2362204724329 Z" fill="#DBB75C" stroke="black" stroke-width="0.5" />
<text font-size="9" text-anchor="start"><textPath xlink:href="#d10" startOffset="0">
<tspan dy="0.4em">b</tspan>
</textPath></text>
<path d="M40.0,-622.2362204724329 L81.25,-622.2362204724329 L81.25,-623.9370078740077 L40.0,-623.9370078740077 Z" fill="#FDBB45" stroke="black" stroke-width="0.5" />
<text font-size="9" text-anchor="start"><textPath xlink:href="#d11" startOffset="0">
<tspan dy="0.4em">c</tspan>
</textPath></text>
<path d="M40.0,-623.9370078740077 L107.5,-623.9370078740077 L107.5,-632.4409448818816 L40.0,-632.4409448818816 Z" fill="#661714" stroke="black" stroke-width="0.5" />
<path d="M40.0,-632.4409448818816 L107.5,-632.4409448818816 L107.5,-649.4488188976294 L40.0,-649.4488188976294 Z" fill="#99834F" stroke="black" stroke-width="0.5" />
<path d="M40.0,-649.4488188976294 L81.25,-649.4488188976294 L81.25,-657.9527559055033 L40.0,-657.9527559055033 Z" fill="#FDBB45" stroke="black" stroke-width="0.5" />
<path d="M40.0,-657.9527559055033 L107.5,-657.9527559055033 L107.5,-658.5196850393615 L40.0,-658.5196850393615 Z" fill="#661714" stroke="black" stroke-width="0.5" />
<path d="M40.0,-658.5196850393615 L81.25,-658.5196850393615 L81.25,-675.5275590551092 L40.0,-675.5275590551092 Z" fill="#FDBB45" stroke="black" stroke-width="0.5" />
<path d="M40.0,-675.5275590551092 L107.5,-675.5275590551092 L107.5,-677.7952755905424 L40.0,-677.7952755905424 Z" fill="#EF4130" stroke="black" stroke-width="0.5" />
<path d="M40.0,-677.7952755905424 L81.25,-677.7952755905424 L81.25,-678.9291338582589 L40.0,-678.9291338582589 Z" fill="#DBB75C" stroke="black" stroke-width="0.5" />
<path d="M40.0,-678.9291338582589 L107.5,-678.9291338582589 L107.5,-679.4960629921171 L40.0,-679.4960629921171 Z" fill="#B22C26" stroke="black" stroke-width="0.5" />
<path d="M40.0,-679.4960629921171 L81.25,-679.4960629921171 L81.25,-686.8661417322745 L40.0,-686.8661417322745 Z" fill="#DBB75C" stroke="black" stroke-width="0.5" />
<path d="M40.0,-686.8661417322745 L92.5,-686.8661417322745 L107.5,-689.7007874015658 L40.0,-689.7007874015658 Z" fill="#661714" stroke="black" stroke-width="0.5" />
<path d="M40.0,-689.7007874015658 L81.25,-689.7007874015658 L81.25,-695.3700787401484 L40.0,-695.3700787401484 Z" fill="#DBB75C" stroke="black" stroke-width="0.5" />
<path d="M40.0,-695.3700787401484 L62.5,-695.3700787401484 L62.5,-718.0472440944787 L40.0,-718.0472440944787 Z" fill="#807969" stroke="black" stroke-width="0.5" />
<path d="M40.0,-718.0472440944787 L107.5,-718.0472440944787 L107.5,-724.8503937007779 L40.0,-724.8503937007779 Z" fill="#661714" stroke="black" stroke-width="0.5" />
<path d="M40.0,-724.8503937007779 L85.0,-724.8503937007779 L85.0,-727.118110236211 L40.0,-727.118110236211 Z" fill="#DBB75C" stroke="black" stroke-width="0.5" />
<path d="M40.0,-727.118110236211 L85.0,-727.118110236211 L85.0,-735.6220472440849 L40.0,-735.6220472440849 Z" fill="#B22C26" stroke="black" stroke-width="0.5" />
<text font-size="9" text-anchor="start"><textPath xlink:href="#d12" startOffset="0">
<tspan dy="0.4em">a</tspan>
</textPath></text>
<path d="M40.0,-735.6220472440849 L62.5,-735.6220472440849 L62.5,-736.7559055118014 L40.0,-736.7559055118014 Z" fill="#807969" stroke="black" stroke-width="0.5" />
<text font-size="9" text-anchor="start"><textPath xlink:href="#d13" startOffset="0">
<tspan dy="0.4em">b</tspan>
</textPath></text>
<path d="M40.0,-736.7559055118014 L81.25,-736.7559055118014 L81.25,-737.3228346456597 L40.0,-737.3228346456597 Z" fill="#DBB75C" stroke="black" stroke-width="0.5" />
<text font-size="9" text-anchor="start"><textPath xlink:href="#d14" startOffset="0">
<tspan dy="0.4em">c</tspan>
</textPath></text>
<path d="M40.0,-737.3228346456597 L85.0,-737.3228346456597 L85.0,-746.3937007873918 L40.0,-746.3937007873918 Z" fill="#FBB672" stroke="black" stroke-width="0.5" />
<path d="M40.0,-746.3937007873918 L62.5,-746.3937007873918 L62.5,-748.6614173228248 L40.0,-748.6614173228248 Z" fill="#807969" stroke="black" stroke-width="0.5" />
<path d="M40.0,-748.6614173228248 L77.5,-748.6614173228248 L77.5,-752.0629921259743 L40.0,-752.0629921259743 Z" fill="#DBB75C" stroke="black" stroke-width="0.5" />
<path d="M40.0,-752.0629921259743 L62.5,-752.0629921259743 L62.5,-753.196850393691 L40.0,-753.196850393691 Z" fill="#807969" stroke="black" stroke-width="0.5" />
<text font-size="9" text-anchor="start"><textPath xlink:href="#d15" startOffset="0">
<tspan dy="0.4em">a</tspan>
</textPath></text>
<path d="M40.0,-753.196850393691 L77.5,-753.196850393691 L77.5,-756.5984251968405 L40.0,-756.5984251968405 Z" fill="#DBB75C" stroke="black" stroke-width="0.5" />
<text font-size="9" text-anchor="start"><textPath xlink:href="#d16" startOffset="0">
<tspan dy="0.4em">b</tspan>
</textPath></text>
<path d="M40.0,-756.5984251968405 L77.5,-756.5984251968405 L77.5,-757.732283464557 L40.0,-757.732283464557 Z" fill="#DBB75C" stroke="black" stroke-width="0.5" />
<text font-size="9" text-anchor="start"><textPath xlink:href="#d17" startOffset="0">
<tspan dy="0.4em">c</tspan>
</textPath></text>
<path d="M40.0,-757.732283464557 L81.25,-757.732283464557 L81.25,-761.7007874015649 L40.0,-761.7007874015649 Z" fill="#FDBB45" stroke="black" stroke-width="0.5" />
<path d="M40.0,-761.7007874015649 L62.5,-761.7007874015649 L62.5,-770.2047244094388 L40.0,-770.2047244094388 Z" fill="#99917D" stroke="black" stroke-width="0.5" />
<path d="M40.0,-770.2047244094388 L73.75,-770.2047244094388 L73.75,-770.771653543297 L40.0,-770.771653543297 Z" fill="#FFCE6F" stroke="black" stroke-width="0.5" />
<text font-size="9" text-anchor="start"><textPath xlink:href="#d18" startOffset="0">
<tspan dy="0.4em">a</tspan>
</textPath></text>
<path d="M40.0,-770.771653543297 L62.5,-770.771653543297 L62.5,-771.3385826771552 L40.0,-771.3385826771552 Z" fill="#99917D" stroke="black" stroke-width="0.5" />
<text font-size="9" text-anchor="start"><textPath xlink:href="#d19" startOffset="0">
<tspan dy="0.4em">b</tspan>
</textPath></text>
<path d="M40.0,-771.3385826771552 L73.75,-771.3385826771552 L73.75,-771.9055118110134 L40.0,-771.9055118110134 Z" fill="#FFCE6F" stroke="black" stroke-width="0.5" />
<text font-size="9" text-anchor="start"><textPath xlink:href="#d20" startOffset="0">
<tspan dy="0.4em">c</tspan>
</textPath></text>
<path d="M40.0,-771.9055118110134 L62.5,-771.9055118110134 L62.5,-773.0393700787299 L40.0,-773.0393700787299 Z" fill="#99917D" stroke="black" stroke-width="0.5" />
<path d="M40.0,-773.0393700787299 L62.5,-773.0393700787299 L62.5,-780.4094488188873 L40.0,-780.4094488188873 Z" fill="#99917D" stroke="black" stroke-width="0.5" />
<path d="M40.0,-780.4094488188873 L73.75,-780.4094488188873 L73.75,-780.9763779527456 L40.0,-780.9763779527456 Z" fill="#FFCE6F" stroke="black" stroke-width="0.5" />
<path d="M40.0,-780.9763779527456 L62.5,-780.9763779527456 L62.5,-784.377952755895 L40.0,-784.377952755895 Z" fill="#99917D" stroke="black" stroke-width="0.5" />
<path d="M40.0,-784.377952755895 L73.75,-784.377952755895 L73.75,-786.6456692913282 L40.0,-786.6456692913282 Z" fill="#DBB75C" stroke="black" stroke-width="0.5" />
<path d="M40.0,-786.6456692913282 L70.0,-786.6456692913282 L70.0,-794.0157480314856 L40.0,-794.0157480314856 Z" fill="#99917D" stroke="black" stroke-width="0.5" clip-path="url(#d21)" />
<path d="M155.0,-39.64566929133912 L185.0,-39.64566929133912 L185.0,-47.015748031496514 L155.0,-47.015748031496514 Z" fill="#99917D" stroke="black" stroke-width="0.5" clip-path="url(#d22)" />
<path d="M155.0,-47.015748031496514 L188.75,-47.015748031496514 L188.75,-48.14960629921302 L155.0,-48.14960629921302 Z" fill="#E3AB4A" stroke="black" stroke-width="0.5" />
<path d="M155.0,-48.14960629921302 L177.5,-48.14960629921302 L177.5,-49.2834645669293 L155.0,-49.2834645669293 Z" fill="#99917D" stroke="black" stroke-width="0.5" />
<path d="M155.0,-49.2834645669293 L188.75,-49.2834645669293 L188.75,-49.85039370078766 L155.0,-49.85039370078766 Z" fill="#FFCE6F" stroke="black" stroke-width="0.5" />
<path d="M155.0,-49.85039370078766 L177.5,-49.85039370078766 L177.5,-51.55118110236242 L155.0,-51.55118110236242 Z" fill="#99917D" stroke="black" stroke-width="0.5" />
<path d="M155.0,-51.55118110236242 L188.75,-51.55118110236242 L188.75,-52.11811023622056 L155.0,-52.11811023622056 Z" fill="#FFCE6F" stroke="black" stroke-width="0.5" />
<text font-size="9" text-anchor="start"><textPath xlink:href="#d23" startOffset="0">
<tspan dy="0.4em">a</tspan>
</textPath></text>
<path d="M155.0,-52.11811023622056 L177.5,-52.11811023622056 L188.75,-57.7874015748032 L155.0,-57.7874015748032 Z" fill="#99917D" stroke="black" stroke-width="0.5" />
<text font-size="9" text-anchor="start"><textPath xlink:href="#d24" startOffset="0">
<tspan dy="0.4em">b</tspan>
</textPath></text>
<path d="M155.0,-57.7874015748032 L196.25,-57.7874015748032 L196.25,-66.2913385826771 L155.0,-66.2913385826771 Z" fill="#FDBB45" stroke="black" stroke-width="0.5" />
<text font-size="9" text-anchor="start"><textPath xlink:href="#d25" startOffset="0">
<tspan dy="0.4em">c</tspan>
</textPath></text>
<path d="M155.0,-66.2913385826771 L196.25,-66.2913385826771 L196.25,-68.55905511811022 L155.0,-68.55905511811022 Z" fill="#FBB672" stroke="black" stroke-width="0.5" />
<path d="M155.0,-68.55905511811022 L177.5,-68.55905511811022 L177.5,-71.96062992125985 L155.0,-71.96062992125985 Z" fill="#99917D" stroke="black" stroke-width="0.5" />
<path d="M155.0,-71.96062992125985 L196.25,-71.96062992125985 L196.25,-75.9291338582675 L155.0,-75.9291338582675 Z" fill="#FBB672" stroke="black" stroke-width="0.5" />
<path d="M155.0,-75.9291338582675 L192.5,-75.9291338582675 L192.5,-76.49606299212587 L155.0,-76.49606299212587 Z" fill="#DBB75C" stroke="black" stroke-width="0.5" />
<text font-size="9" text-anchor="start"><textPath xlink:href="#d26" startOffset="0">
<tspan dy="0.4em">a</tspan>
</textPath></text>
<path d="M155.0,-76.49606299212587 L196.25,-76.49606299212587 L196.25,-77.62992125984215 L155.0,-77.62992125984215 Z" fill="#FBB672" stroke="black" stroke-width="0.5" />
<text font-size="9" text-anchor="start"><textPath xlink:href="#d27" startOffset="0">
<tspan dy="0.4em">b</tspan>
</textPath></text>
<path d="M155.0,-77.62992125984215 L192.5,-77.62992125984215 L192.5,-85.5669291338578 L155.0,-85.5669291338578 Z" fill="#DBB75C" stroke="black" stroke-width="0.5" />
<text font-size="9" text-anchor="start"><textPath xlink:href="#d28" startOffset="0">
<tspan dy="0.4em">c</tspan>
</textPath></text>
<path d="M155.0,-85.5669291338578 L196.25,-85.5669291338578 L196.25,-88.40157480314917 L155.0,-88.40157480314917 Z" fill="#FDBB45" stroke="black" stroke-width="0.5" />
<path d="M155.0,-88.40157480314917 L177.5,-88.40157480314917 L177.5,-88.96850393700731 L155.0,-88.96850393700731 Z" fill="#99917D" stroke="black" stroke-width="0.5" />
<path d="M155.0,-88.96850393700731 L192.5,-88.96850393700731 L192.5,-91.80314960629869 L155.0,-91.80314960629869 Z" fill="#FDBB45" stroke="black" stroke-width="0.5" />
<path d="M155.0,-91.80314960629869 L188.75,-91.80314960629869 L188.75,-92.9370078740152 L155.0,-92.9370078740152 Z" fill="#DBB75C" stroke="black" stroke-width="0.5" />
<path d="M155.0,-92.9370078740152 L188.75,-92.9370078740152 L188.75,-100.87401574803084 L155.0,-100.87401574803084 Z" fill="#DBB75C" stroke="black" stroke-width="0.5" />
<text font-size="9" text-anchor="start"><textPath xlink:href="#d29" startOffset="0">
<tspan dy="0.4em">a</tspan>
</textPath></text>
<path d="M155.0,-100.87401574803084 L162.5,-100.87401574803084 L162.5,-185.91338582676985 L155.0,-185.91338582676985 Z" fill="#FFFFFF" stroke="black" stroke-width="0.5" />
<text font-size="9" text-anchor="start"><textPath xlink:href="#d30" startOffset="0">
<tspan dy="0.4em">b</tspan>
</textPath></text>
<path d="M155.0,-185.91338582676985 L222.5,-185.91338582676985 L222.5,-202.92125984251766 L155.0,-202.92125984251766 Z" fill="#B22C26" stroke="black" stroke-width="0.5" />
<text font-size="9" text-anchor="start"><textPath xlink:href="#d31" startOffset="0">
<tspan dy="0.4em">c</tspan>
</textPath></text>
<path d="M155.0,-202.92125984251766 L200.0,-202.92125984251766 L200.0,-225.5984251968481 L155.0,-225.5984251968481 Z" fill="#FDBB45" stroke="black" stroke-width="0.5" />
<path d="M155.0,-225.5984251968481 L196.25,-225.5984251968481 L196.25,-234.102362204722 L155.0,-234.102362204722 Z" fill="#FDBB45" stroke="black" stroke-width="0.5" />
<path d="M155.0,-234.102362204722 L200.0,-234.102362204722 L200.0,-251.1102362204698 L155.0,-251.1102362204698 Z" fill="#DBB75C" stroke="black" stroke-width="0.5" />
<path d="M155.0,-251.1102362204698 L192.5,-251.1102362204698 L192.5,-259.6141732283437 L155.0,-259.6141732283437 Z" fill="#DBB75C" stroke="black" stroke-width="0.5" />
<path d="M155.0,-259.6141732283437 L196.25,-259.6141732283437 L196.25,-268.1181102362176 L155.0,-268.1181102362176 Z" fill="#FDBB45" stroke="black" stroke-width="0.5" />
<path d="M155.0,-268.1181102362176 L192.5,-268.1181102362176 L192.5,-273.7874015748001 L155.0,-273.7874015748001 Z" fill="#DBB75C" stroke="black" stroke-width="0.5" />
<path d="M155.0,-273.7874015748001 L192.5,-273.7874015748001 L192.5,-282.29133858267403 L155.0,-282.29133858267403 Z" fill="#FDBB45" stroke="black" stroke-width="0.5" />
<path d="M155.0,-282.29133858267403 L192.5,-282.29133858267403 L192.5,-295.33070866141406 L155.0,-295.33070866141406 Z" fill="#FDBB45" stroke="black" stroke-width="0.5" />
<path d="M155.0,-295.33070866141406 L192.5,-295.33070866141406 L192.5,-309.5039370078705 L155.0,-309.5039370078705 Z" fill="#FDBB45" stroke="black" stroke-width="0.5" />
<path d="M155.0,-309.5039370078705 L215.0,-309.5039370078705 L215.0,-318.0078740157444 L155.0,-318.0078740157444 Z" fill="#B22C26" stroke="black" stroke-width="0.5" />
<path d="M155.0,-318.0078740157444 L196.25,-318.0078740157444 L196.25,-323.67716535432714 L155.0,-323.67716535432714 Z" fill="#DBB75C" stroke="black" stroke-width="0.5" />
<text font-size="9" text-anchor="start"><textPath xlink:href="#d32" startOffset="0">
<tspan dy="0.4em">a</tspan>
</textPath></text>
<path d="M155.0,-323.67716535432714 L196.25,-323.67716535432714 L196.25,-352.0236220472402 L155.0,-352.0236220472402 Z" fill="#DBB75C" stroke="black" stroke-width="0.5" />
<text font-size="9" text-anchor="start"><textPath xlink:href="#d33" startOffset="0">
<tspan dy="0.4em">b</tspan>
</textPath></text>
<path d="M155.0,-352.0236220472402 L222.5,-352.0236220472402 L222.5,-360.5275590551139 L155.0,-360.5275590551139 Z" fill="#661714" stroke="black" stroke-width="0.5" />
<text font-size="9" text-anchor="start"><textPath xlink:href="#d34" startOffset="0">
<tspan dy="0.4em">c</tspan>
</textPath></text>
<path d="M155.0,-360.5275590551139 L192.5,-360.5275590551139 L192.5,-366.1968503936964 L155.0,-366.1968503936964 Z" fill="#E3AB4A" stroke="black" stroke-width="0.5" />
<path d="M155.0,-366.1968503936964 L192.5,-366.1968503936964 L192.5,-383.2047244094442 L155.0,-383.2047244094442 Z" fill="#E3AB4A" stroke="black" stroke-width="0.5" />
<path d="M155.0,-383.2047244094442 L196.25,-383.2047244094442 L196.25,-411.5511811023573 L155.0,-411.5511811023573 Z" fill="#DBB75C" stroke="black" stroke-width="0.5" />
<path d="M155.0,-411.5511811023573 L196.25,-411.5511811023573 L196.25,-439.8976377952704 L155.0,-439.8976377952704 Z" fill="#DBB75C" stroke="black" stroke-width="0.5" />
<path d="M155.0,-439.8976377952704 L196.25,-439.8976377952704 L196.25,-468.24409448818324 L155.0,-468.24409448818324 Z" fill="#DBB75C" stroke="black" stroke-width="0.5" />
<path d="M155.0,-468.24409448818324 L196.25,-468.24409448818324 L196.25,-470.5118110236165 L155.0,-470.5118110236165 Z" fill="#E3AB4A" stroke="black" stroke-width="0.5" />
<path d="M155.0,-470.5118110236165 L196.25,-470.5118110236165 L196.25,-487.5196850393643 L155.0,-487.5196850393643 Z" fill="#DBB75C" stroke="black" stroke-width="0.5" />
<text font-size="9" text-anchor="start"><textPath xlink:href="#d35" startOffset="0">
<tspan dy="0.4em">a</tspan>
</textPath></text>
<path d="M155.0,-487.5196850393643 L222.5,-487.5196850393643 L222.5,-498.85826771652955 L155.0,-498.85826771652955 Z" fill="#661714" stroke="black" stroke-width="0.5" />
<text font-size="9" text-anchor="start"><textPath xlink:href="#d36" startOffset="0">
<tspan dy="0.4em">b</tspan>
</textPath></text>
<path d="M155.0,-498.85826771652955 L200.0,-498.85826771652955 L200.0,-510.19685039369483 L155.0,-510.19685039369483 Z" fill="#E3AB4A" stroke="black" stroke-width="0.5" />
<text font-size="9" text-anchor="start"><textPath xlink:href="#d37" startOffset="0">
<tspan dy="0.4em">c</tspan>
</textPath></text>
<path d="M155.0,-510.19685039369483 L215.0,-510.19685039369483 L215.0,-521.5354330708599 L155.0,-521.5354330708599 Z" fill="#661714" stroke="black" stroke-width="0.5" />
<path d="M155.0,-521.5354330708599 L196.25,-521.5354330708599 L196.25,-544.2125984251904 L155.0,-544.2125984251904 Z" fill="#FDBB45" stroke="black" stroke-width="0.5" />
<path d="M155.0,-544.2125984251904 L196.25,-544.2125984251904 L196.25,-566.8897637795208 L155.0,-566.8897637795208 Z" fill="#FDBB45" stroke="black" stroke-width="0.5" />
<path d="M155.0,-566.8897637795208 L196.25,-566.8897637795208 L196.25,-578.228346456686 L155.0,-578.228346456686 Z" fill="#DBB75C" stroke="black" stroke-width="0.5" />
<path d="M155.0,-578.228346456686 L192.5,-578.228346456686 L215.0,-592.4015748031422 L155.0,-592.4015748031422 Z" fill="#E3AB4A" stroke="black" stroke-width="0.5" />
<path d="M155.0,-592.4015748031422 L192.5,-592.4015748031422 L192.5,-598.070866141725 L155.0,-598.070866141725 Z" fill="#E3AB4A" stroke="black" stroke-width="0.5" />
<text font-size="9" text-anchor="start"><textPath xlink:href="#d38" startOffset="0">
<tspan dy="0.4em">a</tspan>
</textPath></text>
<path d="M155.0,-598.070866141725 L177.5,-598.070866141725 L177.5,-606.5748031495989 L155.0,-606.5748031495989 Z" fill="#807969" stroke="black" stroke-width="0.5" />
<text font-size="9" text-anchor="start"><textPath xlink:href="#d39" startOffset="0">
<tspan dy="0.4em">b</tspan>
</textPath></text>
<path d="M155.0,-606.5748031495989 L177.5,-606.5748031495989 L177.5,-612.2440944881816 L155.0,-612.2440944881816 Z" fill="#666154" stroke="black" stroke-width="0.5" />
<text font-size="9" text-anchor="start"><textPath xlink:href="#d40" startOffset="0">
<tspan dy="0.4em">c</tspan>
</textPath></text>
<path d="M155.0,-612.2440944881816 L188.75,-612.2440944881816 L188.75,-629.2519685039294 L155.0,-629.2519685039294 Z" fill="#FFCE6F" stroke="black" stroke-width="0.5" />
<text font-size="9" text-anchor="start"><textPath xlink:href="#d41" startOffset="0">
<tspan dy="0.4em">a</tspan>
</textPath></text>
<path d="M155.0,-629.2519685039294 L215.0,-629.2519685039294 L215.0,-636.0551181102282 L155.0,-636.0551181102282 Z" fill="#661714" stroke="black" stroke-width="0.5" />
<text font-size="9" text-anchor="start"><textPath xlink:href="#d42" startOffset="0">
<tspan dy="0.4em">b</tspan>
</textPath></text>
<path d="M155.0,-636.0551181102282 L192.5,-636.0551181102282 L192.5,-641.7244094488108 L155.0,-641.7244094488108 Z" fill="#E3AB4A" stroke="black" stroke-width="0.5" />
<text font-size="9" text-anchor="start"><textPath xlink:href="#d43" startOffset="0">
<tspan dy="0.4em">c</tspan>
</textPath></text>
<path d="M155.0,-641.7244094488108 L196.25,-641.7244094488108 L196.25,-645.6929133858187 L155.0,-645.6929133858187 Z" fill="#FBB672" stroke="black" stroke-width="0.5" />
<text font-size="9" text-anchor="start"><textPath xlink:href="#d44" startOffset="0">
<tspan dy="0.4em">a</tspan>
</textPath></text>
<path d="M155.0,-645.6929133858187 L196.25,-645.6929133858187 L196.25,-650.2283464566849 L155.0,-650.2283464566849 Z" fill="#FBB672" stroke="black" stroke-width="0.5" />
<text font-size="9" text-anchor="start"><textPath xlink:href="#d45" startOffset="0">
<tspan dy="0.4em">b</tspan>
</textPath></text>
<path d="M155.0,-650.2283464566849 L192.5,-650.2283464566849 L192.5,-652.4960629921179 L155.0,-652.4960629921179 Z" fill="#E3AB4A" stroke="black" stroke-width="0.5" />
<text font-size="9" text-anchor="start"><textPath xlink:href="#d46" startOffset="0">
<tspan dy="0.4em">c</tspan>
</textPath></text>
<path d="M155.0,-652.4960629921179 L215.0,-652.4960629921179 L215.0,-658.1653543307004 L155.0,-658.1653543307004 Z" fill="#661714" stroke="black" stroke-width="0.5" />
<text font-size="9" text-anchor="start"><textPath xlink:href="#d47" startOffset="0">
<tspan dy="0.4em">a</tspan>
</textPath></text>
<path d="M155.0,-658.1653543307004 L192.5,-658.1653543307004 L192.5,-675.1732283464482 L155.0,-675.1732283464482 Z" fill="#E3AB4A" stroke="black" stroke-width="0.5" />
<text font-size="9" text-anchor="start"><textPath xlink:href="#d48" startOffset="0">
<tspan dy="0.4em">b</tspan>
</textPath></text>
<path d="M155.0,-675.1732283464482 L192.5,-675.1732283464482 L192.5,-680.842519685031 L155.0,-680.842519685031 Z" fill="#DBB75C" stroke="black" stroke-width="0.5" />
<text font-size="9" text-anchor="start"><textPath xlink:href="#d49" startOffset="0">
<tspan dy="0.4em">c</tspan>
</textPath></text>
<path d="M155.0,-680.842519685031 L192.5,-680.842519685031 L192.5,-684.8110236220384 L155.0,-684.8110236220384 Z" fill="#FBB672" stroke="black" stroke-width="0.5" />
<text font-size="9" text-anchor="start"><textPath xlink:href="#d50" startOffset="0">
<tspan dy="0.4em">a</tspan>
</textPath></text>
<path d="M155.0,-684.8110236220384 L177.5,-684.8110236220384 L177.5,-689.3464566929047 L155.0,-689.3464566929047 Z" fill="#99917D" stroke="black" stroke-width="0.5" />
<text font-size="9" text-anchor="start"><textPath xlink:href="#d51" startOffset="0">
<tspan dy="0.4em">b</tspan>
</textPath></text>
<path d="M155.0,-689.3464566929047 L192.5,-689.3464566929047 L192.5,-691.0472440944795 L155.0,-691.0472440944795 Z" fill="#DBB75C" stroke="black" stroke-width="0.5" />
<text font-size="9" text-anchor="start"><textPath xlink:href="#d52" startOffset="0">
<tspan dy="0.4em">c</tspan>
</textPath></text>
<path d="M155.0,-691.0472440944795 L192.5,-691.0472440944795 L192.5,-699.5511811023537 L155.0,-699.5511811023537 Z" fill="#FDBB45" stroke="black" stroke-width="0.5" />
<text font-size="9" text-anchor="start"><textPath xlink:href="#d53" startOffset="0">
<tspan dy="0.4em">a</tspan>
</textPath></text>
<path d="M155.0,-699.5511811023537 L196.25,-699.5511811023537 L196.25,-705.2204724409362 L155.0,-705.2204724409362 Z" fill="#DBB75C" stroke="black" stroke-width="0.5" />
<text font-size="9" text-anchor="start"><textPath xlink:href="#d54" startOffset="0">
<tspan dy="0.4em">b</tspan>
</textPath></text>
<path d="M155.0,-705.2204724409362 L196.25,-705.2204724409362 L196.25,-707.488188976369 L155.0,-707.488188976369 Z" fill="#FDBB45" stroke="black" stroke-width="0.5" />
<text font-size="9" text-anchor="start"><textPath xlink:href="#d55" startOffset="0">
<tspan dy="0.4em">c</tspan>
</textPath></text>
<path d="M155.0,-707.488188976369 L196.25,-707.488188976369 L196.25,-714.2913385826682 L155.0,-714.2913385826682 Z" fill="#FBB672" stroke="black" stroke-width="0.5" />
<text font-size="9" text-anchor="start"><textPath xlink:href="#d56" startOffset="0">
<tspan dy="0.4em">a</tspan>
</textPath></text>
<path d="M155.0,-714.2913385826682 L177.5,-714.2913385826682 L177.5,-715.9921259842431 L155.0,-715.9921259842431 Z" fill="#666154" stroke="black" stroke-width="0.5" />
<text font-size="9" text-anchor="start"><textPath xlink:href="#d57" startOffset="0">
<tspan dy="0.4em">b</tspan>
</textPath></text>
<path d="M155.0,-715.9921259842431 L196.25,-715.9921259842431 L196.25,-718.8267716535343 L155.0,-718.8267716535343 Z" fill="#FDBB45" stroke="black" stroke-width="0.5" />
<text font-size="9" text-anchor="start"><textPath xlink:href="#d58" startOffset="0">
<tspan dy="0.4em">c</tspan>
</textPath></text>
<path d="M155.0,-718.8267716535343 L192.5,-718.8267716535343 L192.5,-720.5275590551094 L155.0,-720.5275590551094 Z" fill="#FDBB45" stroke="black" stroke-width="0.5" />
<text font-size="9" text-anchor="start"><textPath xlink:href="#d59" startOffset="0">
<tspan dy="0.4em">a</tspan>
</textPath></text>
<path d="M155.0,-720.5275590551094 L192.5,-720.5275590551094 L192.5,-731.8661417322744 L155.0,-731.8661417322744 Z" fill="#FBB672" stroke="black" stroke-width="0.5" />
<text font-size="9" text-anchor="start"><textPath xlink:href="#d60" startOffset="0">
<tspan dy="0.4em">b</tspan>
</textPath></text>
<path d="M155.0,-731.8661417322744 L177.5,-731.8661417322744 L177.5,-734.1338582677074 L155.0,-734.1338582677074 Z" fill="#99917D" stroke="black" stroke-width="0.5" />
<text font-size="9" text-anchor="start"><textPath xlink:href="#d61" startOffset="0">
<tspan dy="0.4em">c</tspan>
</textPath></text>
<path d="M155.0,-734.1338582677074 L188.75,-734.1338582677074 L188.75,-735.2677165354239 L155.0,-735.2677165354239 Z" fill="#DBB75C" stroke="black" stroke-width="0.5" />
<text font-size="9" text-anchor="start"><textPath xlink:href="#d62" startOffset="0">
<tspan dy="0.4em">a</tspan>
</textPath></text>
<path d="M155.0,-735.2677165354239 L222.5,-735.2677165354239 L222.5,-736.4015748031404 L155.0,-736.4015748031404 Z" fill="#99834F" stroke="black" stroke-width="0.5" />
<text font-size="9" text-anchor="start"><textPath xlink:href="#d63" startOffset="0">
<tspan dy="0.4em">b</tspan>
</textPath></text>
<path d="M155.0,-736.4015748031404 L188.75,-736.4015748031404 L188.75,-738.6692913385734 L155.0,-738.6692913385734 Z" fill="#DBB75C" stroke="black" stroke-width="0.5" />
<text font-size="9" text-anchor="start"><textPath xlink:href="#d64" startOffset="0">
<tspan dy="0.4em">c</tspan>
</textPath></text>
<path d="M155.0,-738.6692913385734 L222.5,-738.6692913385734 L222.5,-744.9055118110145 L155.0,-744.9055118110145 Z" fill="#99834F" stroke="black" stroke-width="0.5" />
<text font-size="9" text-anchor="start"><textPath xlink:href="#d65" startOffset="0">
<tspan dy="0.4em">a</tspan>
</textPath></text>
<path d="M155.0,-744.9055118110145 L192.5,-744.9055118110145 L192.5,-767.5826771653449 L155.0,-767.5826771653449 Z" fill="#DBB75C" stroke="black" stroke-width="0.5" />
<text font-size="9" text-anchor="start"><textPath xlink:href="#d66" startOffset="0">
<tspan dy="0.4em">b</tspan>
</textPath></text>
<path d="M155.0,-767.5826771653449 L192.5,-767.5826771653449 L192.5,-790.2598425196752 L155.0,-790.2598425196752 Z" fill="#FBB672" stroke="black" stroke-width="0.5" clip-path="url(#d67)" />
<path d="M270.0,-20.58267716535579 L307.5,-20.58267716535579 L307.5,-43.25984251968612 L270.0,-43.25984251968612 Z" fill="#FBB672" stroke="black" stroke-width="0.5" clip-path="url(#d68)" />
<path d="M270.0,-43.25984251968612 L311.25,-43.25984251968612 L311.25,-51.76377952756002 L270.0,-51.76377952756002 Z" fill="#DBB75C" stroke="black" stroke-width="0.5" />
<path d="M270.0,-51.76377952756002 L307.5,-51.76377952756002 L307.5,-57.43307086614254 L270.0,-57.43307086614254 Z" fill="#FDBB45" stroke="black" stroke-width="0.5" />
<path d="M270.0,-57.43307086614254 L307.5,-57.43307086614254 L307.5,-59.70078740157555 L270.0,-59.70078740157555 Z" fill="#FDBB45" stroke="black" stroke-width="0.5" />
<path d="M270.0,-59.70078740157555 L303.75,-59.70078740157555 L303.75,-63.10236220472507 L270.0,-63.10236220472507 Z" fill="#DBB75C" stroke="black" stroke-width="0.5" />
<path d="M270.0,-63.10236220472507 L337.5,-63.10236220472507 L337.5,-68.77165354330782 L270.0,-68.77165354330782 Z" fill="#99834F" stroke="black" stroke-width="0.5" />
<path d="M270.0,-68.77165354330782 L292.5,-68.77165354330782 L292.5,-75.57480314960708 L270.0,-75.57480314960708 Z" fill="#807969" stroke="black" stroke-width="0.5" />
<path d="M270.0,-75.57480314960708 L307.5,-75.57480314960708 L307.5,-84.07874015748075 L270.0,-84.07874015748075 Z" fill="#FDBB45" stroke="black" stroke-width="0.5" />
<path d="M270.0,-84.07874015748075 L307.5,-84.07874015748075 L307.5,-89.74803149606328 L270.0,-89.74803149606328 Z" fill="#DBB75C" stroke="black" stroke-width="0.5" />
<path d="M270.0,-89.74803149606328 L311.25,-89.74803149606328 L311.25,-95.41732283464603 L270.0,-95.41732283464603 Z" fill="#DBB75C" stroke="black" stroke-width="0.5" />
<path d="M270.0,-95.41732283464603 L307.5,-95.41732283464603 L307.5,-103.92125984251993 L270.0,-103.92125984251993 Z" fill="#FDBB45" stroke="black" stroke-width="0.5" />
<path d="M270.0,-103.92125984251993 L307.5,-103.92125984251993 L307.5,-112.42519685039383 L270.0,-112.42519685039383 Z" fill="#FDBB45" stroke="black" stroke-width="0.5" />
<path d="M270.0,-112.42519685039383 L311.25,-112.42519685039383 L311.25,-114.69291338582684 L270.0,-114.69291338582684 Z" fill="#DBB75C" stroke="black" stroke-width="0.5" />
<path d="M270.0,-114.69291338582684 L311.25,-114.69291338582684 L311.25,-118.09448818897636 L270.0,-118.09448818897636 Z" fill="#FBB672" stroke="black" stroke-width="0.5" />
<path d="M270.0,-118.09448818897636 L307.5,-118.09448818897636 L307.5,-120.92913385826773 L270.0,-120.92913385826773 Z" fill="#DBB75C" stroke="black" stroke-width="0.5" />
<path d="M270.0,-120.92913385826773 L311.25,-120.92913385826773 L311.25,-123.76377952755888 L270.0,-123.76377952755888 Z" fill="#FDBB45" stroke="black" stroke-width="0.5" />
<path d="M270.0,-123.76377952755888 L307.5,-123.76377952755888 L307.5,-135.10236220472416 L270.0,-135.10236220472416 Z" fill="#FDBB45" stroke="black" stroke-width="0.5" />
<path d="M270.0,-135.10236220472416 L307.5,-135.10236220472416 L307.5,-140.77165354330668 L270.0,-140.77165354330668 Z" fill="#DBB75C" stroke="black" stroke-width="0.5" />
<path d="M270.0,-140.77165354330668 L311.25,-140.77165354330668 L311.25,-143.03937007873992 L270.0,-143.03937007873992 Z" fill="#DBB75C" stroke="black" stroke-width="0.5" />
<path d="M270.0,-143.03937007873992 L307.5,-143.03937007873992 L307.5,-144.1732283464562 L270.0,-144.1732283464562 Z" fill="#FBB672" stroke="black" stroke-width="0.5" />
<path d="M270.0,-144.1732283464562 L307.5,-144.1732283464562 L307.5,-147.00787401574757 L270.0,-147.00787401574757 Z" fill="#DBB75C" stroke="black" stroke-width="0.5" />
<path d="M270.0,-147.00787401574757 L311.25,-147.00787401574757 L311.25,-150.97637795275523 L270.0,-150.97637795275523 Z" fill="#E3AB4A" stroke="black" stroke-width="0.5" />
<path d="M270.0,-150.97637795275523 L307.5,-150.97637795275523 L307.5,-156.64566929133775 L270.0,-156.64566929133775 Z" fill="#DBB75C" stroke="black" stroke-width="0.5" />
<path d="M270.0,-156.64566929133775 L337.5,-156.64566929133775 L337.5,-167.98425196850303 L270.0,-167.98425196850303 Z" fill="#661714" stroke="black" stroke-width="0.5" />
<path d="M270.0,-167.98425196850303 L311.25,-167.98425196850303 L311.25,-173.65354330708556 L270.0,-173.65354330708556 Z" fill="#FDBB45" stroke="black" stroke-width="0.5" />
<path d="M270.0,-173.65354330708556 L315.0,-173.65354330708556 L315.0,-184.99212598425083 L270.0,-184.99212598425083 Z" fill="#FBB672" stroke="black" stroke-width="0.5" />
<path d="M270.0,-184.99212598425083 L307.5,-184.99212598425083 L307.5,-192.36220472440846 L270.0,-192.36220472440846 Z" fill="#DBB75C" stroke="black" stroke-width="0.5" />
<path d="M270.0,-192.36220472440846 L311.25,-192.36220472440846 L311.25,-203.13385826771514 L270.0,-203.13385826771514 Z" fill="#FDBB45" stroke="black" stroke-width="0.5" />
<path d="M270.0,-203.13385826771514 L307.5,-203.13385826771514 L307.5,-214.4724409448802 L270.0,-214.4724409448802 Z" fill="#E3AB4A" stroke="black" stroke-width="0.5" />
<path d="M270.0,-214.4724409448802 L311.25,-214.4724409448802 L311.25,-222.40944881889595 L270.0,-222.40944881889595 Z" fill="#FBB672" stroke="black" stroke-width="0.5" />
<path d="M270.0,-222.40944881889595 L307.5,-222.40944881889595 L307.5,-231.480314960628 L270.0,-231.480314960628 Z" fill="#FDBB45" stroke="black" stroke-width="0.5" />
<path d="M270.0,-231.480314960628 L311.25,-231.480314960628 L311.25,-242.81889763779327 L270.0,-242.81889763779327 Z" fill="#DBB75C" stroke="black" stroke-width="0.5" />
<path d="M270.0,-242.81889763779327 L311.25,-242.81889763779327 L311.25,-255.29133858267483 L270.0,-255.29133858267483 Z" fill="#DBB75C" stroke="black" stroke-width="0.5" />
<path d="M270.0,-255.29133858267483 L311.25,-255.29133858267483 L311.25,-268.8976377952731 L270.0,-268.8976377952731 Z" fill="#FBB672" stroke="black" stroke-width="0.5" />
<path d="M270.0,-268.8976377952731 L315.0,-268.8976377952731 L315.0,-285.9055118110209 L270.0,-285.9055118110209 Z" fill="#FDBB45" stroke="black" stroke-width="0.5" />
<path d="M270.0,-285.9055118110209 L311.25,-285.9055118110209 L311.25,-300.07874015747757 L270.0,-300.07874015747757 Z" fill="#DBB75C" stroke="black" stroke-width="0.5" />
<path d="M270.0,-300.07874015747757 L330.0,-300.07874015747757 L330.0,-301.7795275590522 L270.0,-301.7795275590522 Z" fill="#99834F" stroke="black" stroke-width="0.5" />
<path d="M270.0,-301.7795275590522 L311.25,-301.7795275590522 L311.25,-305.7480314960601 L270.0,-305.7480314960601 Z" fill="#E3AB4A" stroke="black" stroke-width="0.5" />
<path d="M270.0,-305.7480314960601 L292.5,-305.7480314960601 L292.5,-307.44881889763496 L270.0,-307.44881889763496 Z" fill="#807969" stroke="black" stroke-width="0.5" />
<path d="M270.0,-307.44881889763496 L322.5,-307.44881889763496 L322.5,-309.1496062992096 L270.0,-309.1496062992096 Z" fill="#E3AB4A" stroke="black" stroke-width="0.5" />
<path d="M270.0,-309.1496062992096 L292.5,-309.1496062992096 L292.5,-312.5511811023591 L270.0,-312.5511811023591 Z" fill="#807969" stroke="black" stroke-width="0.5" />
<path d="M270.0,-312.5511811023591 L307.5,-312.5511811023591 L307.5,-329.5590551181069 L270.0,-329.5590551181069 Z" fill="#FDBB45" stroke="black" stroke-width="0.5" />
<path d="M270.0,-329.5590551181069 L307.5,-329.5590551181069 L307.5,-336.36220472440596 L270.0,-336.36220472440596 Z" fill="#DBB75C" stroke="black" stroke-width="0.5" />
<path d="M270.0,-336.36220472440596 L292.5,-336.36220472440596 L292.5,-347.70078740157123 L270.0,-347.70078740157123 Z" fill="#807969" stroke="black" stroke-width="0.5" />
<path d="M270.0,-347.70078740157123 L315.0,-347.70078740157123 L315.0,-349.4015748031461 L270.0,-349.4015748031461 Z" fill="#DBB75C" stroke="black" stroke-width="0.5" />
<path d="M270.0,-349.4015748031461 L311.25,-349.4015748031461 L311.25,-355.07086614172886 L270.0,-355.07086614172886 Z" fill="#DBB75C" stroke="black" stroke-width="0.5" />
<path d="M270.0,-355.07086614172886 L315.0,-355.07086614172886 L315.0,-356.20472440944513 L270.0,-356.20472440944513 Z" fill="#DBB75C" stroke="black" stroke-width="0.5" />
<text font-size="9" text-anchor="start"><textPath xlink:href="#d69" startOffset="0">
<tspan dy="0.4em">a</tspan>
</textPath></text>
<path d="M270.0,-356.20472440944513 L315.0,-356.20472440944513 L315.0,-363.57480314960253 L270.0,-363.57480314960253 Z" fill="#FBB672" stroke="black" stroke-width="0.5" />
<text font-size="9" text-anchor="start"><textPath xlink:href="#d70" startOffset="0">
<tspan dy="0.4em">b</tspan>
</textPath></text>
<path d="M270.0,-363.57480314960253 L322.5,-363.57480314960253 L322.5,-369.2440944881853 L270.0,-369.2440944881853 Z" fill="#DBB75C" stroke="black" stroke-width="0.5" />
<text font-size="9" text-anchor="start"><textPath xlink:href="#d71" startOffset="0">
<tspan dy="0.4em">c</tspan>
</textPath></text>
<path d="M270.0,-369.2440944881853 L322.5,-369.2440944881853 L322.5,-374.9133858267678 L270.0,-374.9133858267678 Z" fill="#FBB672" stroke="black" stroke-width="0.5" />
<text font-size="9" text-anchor="start"><textPath xlink:href="#d72" startOffset="0">
<tspan dy="0.4em">w</tspan>
</textPath></text>
<path d="M270.0,-374.9133858267678 L311.25,-374.9133858267678 L311.25,-378.8818897637757 L270.0,-378.8818897637757 Z" fill="#FBB672" stroke="black" stroke-width="0.5" />
<text font-size="9" text-anchor="start"><textPath xlink:href="#d73" startOffset="0">
<tspan dy="0.4em">r</tspan>
</textPath></text>
<path d="M270.0,-378.8818897637757 L292.5,-378.8818897637757 L292.5,-382.28346456692543 L270.0,-382.28346456692543 Z" fill="#807969" stroke="black" stroke-width="0.5" />
<text font-size="9" text-anchor="start"><textPath xlink:href="#d74" startOffset="0">
<tspan dy="0.4em">t</tspan>
</textPath></text>
<path d="M270.0,-382.28346456692543 L330.0,-382.28346456692543 L330.0,-385.1181102362168 L270.0,-385.1181102362168 Z" fill="#99834F" stroke="black" stroke-width="0.5" />
<text font-size="9" text-anchor="start"><textPath xlink:href="#d75" startOffset="0">
<tspan dy="0.4em">y</tspan>
</textPath></text>
<path d="M270.0,-385.1181102362168 L307.5,-385.1181102362168 L307.5,-386.2519685039331 L270.0,-386.2519685039331 Z" fill="#DBB75C" stroke="black" stroke-width="0.5" />
<text font-size="9" text-anchor="start"><textPath xlink:href="#d76" startOffset="0">
<tspan dy="0.4em">u</tspan>
</textPath></text>
<path d="M270.0,-386.2519685039331 L292.5,-386.2519685039331 L292.5,-394.755905511807 L270.0,-394.755905511807 Z" fill="#807969" stroke="black" stroke-width="0.5" />
<path d="M270.0,-394.755905511807 L303.75,-394.755905511807 L303.75,-398.72440944881464 L270.0,-398.72440944881464 Z" fill="#FFCE6F" stroke="black" stroke-width="0.5" />
<path d="M270.0,-398.72440944881464 L292.5,-398.72440944881464 L292.5,-399.8582677165314 L270.0,-399.8582677165314 Z" fill="#99917D" stroke="black" stroke-width="0.5" />
<path d="M270.0,-399.8582677165314 L307.5,-399.8582677165314 L307.5,-402.1259842519644 L270.0,-402.1259842519644 Z" fill="#FFCE6F" stroke="black" stroke-width="0.5" />
<path d="M270.0,-402.1259842519644 L292.5,-402.1259842519644 L292.5,-410.62992125983806 L270.0,-410.62992125983806 Z" fill="#99917D" stroke="black" stroke-width="0.5" />
<path d="M270.0,-410.62992125983806 L330.0,-410.62992125983806 L330.0,-419.1338582677122 L270.0,-419.1338582677122 Z" fill="#99834F" stroke="black" stroke-width="0.5" />
<path d="M270.0,-419.1338582677122 L315.0,-419.1338582677122 L315.0,-427.63779527558586 L270.0,-427.63779527558586 Z" fill="#E3AB4A" stroke="black" stroke-width="0.5" />
<path d="M270.0,-427.63779527558586 L311.25,-427.63779527558586 L311.25,-434.4409448818849 L270.0,-434.4409448818849 Z" fill="#DBB75C" stroke="black" stroke-width="0.5" />
<path d="M270.0,-434.4409448818849 L315.0,-434.4409448818849 L315.0,-442.94488188975856 L270.0,-442.94488188975856 Z" fill="#DBB75C" stroke="black" stroke-width="0.5" />
<path d="M270.0,-442.94488188975856 L292.5,-442.94488188975856 L292.5,-449.1811023621999 L270.0,-449.1811023621999 Z" fill="#807969" stroke="black" stroke-width="0.5" />
<path d="M270.0,-449.1811023621999 L315.0,-449.1811023621999 L315.0,-449.74803149605805 L270.0,-449.74803149605805 Z" fill="#FBB672" stroke="black" stroke-width="0.5" />
<path d="M270.0,-449.74803149605805 L307.5,-449.74803149605805 L307.5,-450.31496062991664 L270.0,-450.31496062991664 Z" fill="#FDBB45" stroke="black" stroke-width="0.5" />
<path d="M270.0,-450.31496062991664 L315.0,-450.31496062991664 L315.0,-467.32283464566444 L270.0,-467.32283464566444 Z" fill="#FBB672" stroke="black" stroke-width="0.5" />
<path d="M270.0,-467.32283464566444 L322.5,-467.32283464566444 L322.5,-471.29133858267187 L270.0,-471.29133858267187 Z" fill="#FBB672" stroke="black" stroke-width="0.5" />
<path d="M270.0,-471.29133858267187 L315.0,-471.29133858267187 L315.0,-485.4645669291285 L270.0,-485.4645669291285 Z" fill="#DBB75C" stroke="black" stroke-width="0.5" />
<path d="M270.0,-485.4645669291285 L311.25,-485.4645669291285 L311.25,-491.1338582677113 L270.0,-491.1338582677113 Z" fill="#DBB75C" stroke="black" stroke-width="0.5" />
<path d="M270.0,-491.1338582677113 L311.25,-491.1338582677113 L311.25,-493.40157480314406 L270.0,-493.40157480314406 Z" fill="#FBB672" stroke="black" stroke-width="0.5" />
<path d="M270.0,-493.40157480314406 L311.25,-493.40157480314406 L311.25,-500.77165354330145 L270.0,-500.77165354330145 Z" fill="#DBB75C" stroke="black" stroke-width="0.5" />
<path d="M270.0,-500.77165354330145 L311.25,-500.77165354330145 L311.25,-504.74015748030934 L270.0,-504.74015748030934 Z" fill="#FBB672" stroke="black" stroke-width="0.5" />
<path d="M270.0,-504.74015748030934 L292.5,-504.74015748030934 L292.5,-506.440944881884 L270.0,-506.440944881884 Z" fill="#99917D" stroke="black" stroke-width="0.5" />
<path d="M270.0,-506.440944881884 L311.25,-506.440944881884 L311.25,-534.7874015747971 L270.0,-534.7874015747971 Z" fill="#FBB672" stroke="black" stroke-width="0.5" />
<path d="M270.0,-534.7874015747971 L292.5,-534.7874015747971 L292.5,-540.4566929133796 L270.0,-540.4566929133796 Z" fill="#99917D" stroke="black" stroke-width="0.5" />
<path d="M270.0,-540.4566929133796 L330.0,-540.4566929133796 L330.0,-546.6929133858209 L270.0,-546.6929133858209 Z" fill="#99834F" stroke="black" stroke-width="0.5" />
<path d="M270.0,-546.6929133858209 L330.0,-546.6929133858209 L330.0,-551.228346456687 L270.0,-551.228346456687 Z" fill="#99834F" stroke="black" stroke-width="0.5" />
<path d="M270.0,-551.228346456687 L292.5,-551.228346456687 L292.5,-552.9291338582618 L270.0,-552.9291338582618 Z" fill="#99917D" stroke="black" stroke-width="0.5" />
<path d="M270.0,-552.9291338582618 L330.0,-552.9291338582618 L303.75,-555.763779527553 L270.0,-555.763779527553 Z" fill="#FFCE6F" stroke="black" stroke-width="0.5" />
<path d="M270.0,-555.763779527553 L311.25,-555.763779527553 L311.25,-559.7322834645609 L270.0,-559.7322834645609 Z" fill="#FDBB45" stroke="black" stroke-width="0.5" />
<path d="M270.0,-559.7322834645609 L311.25,-559.7322834645609 L311.25,-563.1338582677106 L270.0,-563.1338582677106 Z" fill="#DBB75C" stroke="black" stroke-width="0.5" />
<path d="M270.0,-563.1338582677106 L311.25,-563.1338582677106 L311.25,-585.8110236220409 L270.0,-585.8110236220409 Z" fill="#FBB672" stroke="black" stroke-width="0.5" />
<path d="M270.0,-585.8110236220409 L307.5,-585.8110236220409 L307.5,-597.149606299206 L270.0,-597.149606299206 Z" fill="#FDBB45" stroke="black" stroke-width="0.5" />
<path d="M270.0,-597.149606299206 L330.0,-597.149606299206 L330.0,-601.1181102362139 L270.0,-601.1181102362139 Z" fill="#99834F" stroke="black" stroke-width="0.5" />
<path d="M270.0,-601.1181102362139 L322.5,-601.1181102362139 L322.5,-602.8188976377887 L270.0,-602.8188976377887 Z" fill="#DBB75C" stroke="black" stroke-width="0.5" />
<path d="M270.0,-602.8188976377887 L322.5,-602.8188976377887 L322.5,-614.1574803149538 L270.0,-614.1574803149538 Z" fill="#DBB75C" stroke="black" stroke-width="0.5" />
<path d="M270.0,-614.1574803149538 L307.5,-614.1574803149538 L307.5,-628.3307086614104 L270.0,-628.3307086614104 Z" fill="#FDBB45" stroke="black" stroke-width="0.5" />
<path d="M270.0,-628.3307086614104 L330.0,-628.3307086614104 L330.0,-631.7322834645602 L270.0,-631.7322834645602 Z" fill="#99834F" stroke="black" stroke-width="0.5" />
<path d="M270.0,-631.7322834645602 L330.0,-631.7322834645602 L330.0,-635.7007874015676 L270.0,-635.7007874015676 Z" fill="#EF4130" stroke="black" stroke-width="0.5" />
<path d="M270.0,-635.7007874015676 L322.5,-635.7007874015676 L322.5,-636.8346456692843 L270.0,-636.8346456692843 Z" fill="#DBB75C" stroke="black" stroke-width="0.5" />
<path d="M270.0,-636.8346456692843 L292.5,-636.8346456692843 L292.5,-637.4015748031429 L270.0,-637.4015748031429 Z" fill="#99917D" stroke="black" stroke-width="0.5" />
<path d="M270.0,-637.4015748031429 L322.5,-637.4015748031429 L322.5,-638.5354330708592 L270.0,-638.5354330708592 Z" fill="#DBB75C" stroke="black" stroke-width="0.5" />
<path d="M270.0,-638.5354330708592 L322.5,-638.5354330708592 L322.5,-640.8031496062922 L270.0,-640.8031496062922 Z" fill="#FBB672" stroke="black" stroke-width="0.5" />
<path d="M270.0,-640.8031496062922 L322.5,-640.8031496062922 L322.5,-653.8425196850321 L270.0,-653.8425196850321 Z" fill="#DBB75C" stroke="black" stroke-width="0.5" />
<path d="M270.0,-653.8425196850321 L307.5,-653.8425196850321 L307.5,-677.0866141732208 L270.0,-677.0866141732208 Z" fill="#FDBB45" stroke="black" stroke-width="0.5" />
<path d="M270.0,-677.0866141732208 L330.0,-677.0866141732208 L330.0,-685.0236220472361 L270.0,-685.0236220472361 Z" fill="#99834F" stroke="black" stroke-width="0.5" />
<path d="M270.0,-685.0236220472361 L330.0,-685.0236220472361 L330.0,-688.992125984244 L270.0,-688.992125984244 Z" fill="#661714" stroke="black" stroke-width="0.5" />
<path d="M270.0,-688.992125984244 L330.0,-688.992125984244 L330.0,-694.6614173228263 L270.0,-694.6614173228263 Z" fill="#99834F" stroke="black" stroke-width="0.5" />
<path d="M270.0,-694.6614173228263 L311.25,-694.6614173228263 L311.25,-695.795275590543 L270.0,-695.795275590543 Z" fill="#FFCE6F" stroke="black" stroke-width="0.5" />
<path d="M270.0,-695.795275590543 L322.5,-695.795275590543 L322.5,-698.062992125976 L270.0,-698.062992125976 Z" fill="#DBB75C" stroke="black" stroke-width="0.5" />
<path d="M270.0,-698.062992125976 L307.5,-698.062992125976 L307.5,-699.1968503936923 L270.0,-699.1968503936923 Z" fill="#DBB75C" stroke="black" stroke-width="0.5" />
<path d="M270.0,-699.1968503936923 L322.5,-699.1968503936923 L322.5,-700.8976377952672 L270.0,-700.8976377952672 Z" fill="#DBB75C" stroke="black" stroke-width="0.5" />
<path d="M270.0,-700.8976377952672 L311.25,-700.8976377952672 L311.25,-704.8661417322751 L270.0,-704.8661417322751 Z" fill="#FFCE6F" stroke="black" stroke-width="0.5" />
<path d="M270.0,-704.8661417322751 L322.5,-704.8661417322751 L322.5,-715.0708661417239 L270.0,-715.0708661417239 Z" fill="#DBB75C" stroke="black" stroke-width="0.5" />
<path d="M270.0,-715.0708661417239 L307.5,-715.0708661417239 L307.5,-740.015748031487 L270.0,-740.015748031487 Z" fill="#FDBB45" stroke="black" stroke-width="0.5" />
<path d="M270.0,-740.015748031487 L330.0,-740.015748031487 L330.0,-743.9842519684948 L270.0,-743.9842519684948 Z" fill="#99834F" stroke="black" stroke-width="0.5" />
<path d="M270.0,-743.9842519684948 L322.5,-743.9842519684948 L322.5,-745.1181102362116 L270.0,-745.1181102362116 Z" fill="#DBB75C" stroke="black" stroke-width="0.5" />
<path d="M270.0,-745.1181102362116 L322.5,-745.1181102362116 L322.5,-745.6850393700697 L270.0,-745.6850393700697 Z" fill="#FBB672" stroke="black" stroke-width="0.5" />
<path d="M270.0,-745.6850393700697 L311.25,-745.6850393700697 L311.25,-747.385826771645 L270.0,-747.385826771645 Z" fill="#DBB75C" stroke="black" stroke-width="0.5" />
<path d="M270.0,-747.385826771645 L322.5,-747.385826771645 L322.5,-747.9527559055032 L270.0,-747.9527559055032 Z" fill="#DBB75C" stroke="black" stroke-width="0.5" />
<path d="M270.0,-747.9527559055032 L330.0,-747.9527559055032 L330.0,-753.6220472440859 L270.0,-753.6220472440859 Z" fill="#99834F" stroke="black" stroke-width="0.5" />
<path d="M270.0,-753.6220472440859 L307.5,-753.6220472440859 L307.5,-755.8897637795185 L270.0,-755.8897637795185 Z" fill="#FFCE6F" stroke="black" stroke-width="0.5" />
<path d="M270.0,-755.8897637795185 L322.5,-755.8897637795185 L322.5,-759.2913385826682 L270.0,-759.2913385826682 Z" fill="#DBB75C" stroke="black" stroke-width="0.5" />
<path d="M270.0,-759.2913385826682 L330.0,-759.2913385826682 L330.0,-764.960629921251 L270.0,-764.960629921251 Z" fill="#99834F" stroke="black" stroke-width="0.5" />
<path d="M270.0,-764.960629921251 L322.5,-764.960629921251 L322.5,-775.7322834645574 L270.0,-775.7322834645574 Z" fill="#DBB75C" stroke="black" stroke-width="0.5" />
<path d="M270.0,-775.7322834645574 L307.5,-775.7322834645574 L307.5,-800.1102362204629 L270.0,-800.1102362204629 Z" fill="#FDBB45" stroke="black" stroke-width="0.5" clip-path="url(#d77)" />
<path d="M385.0,-28.732283464568354 L422.5,-28.732283464568354 L422.5,-53.11023622047378 L385.0,-53.11023622047378 Z" fill="#FDBB45" stroke="black" stroke-width="0.5" clip-path="url(#d78)" />
<path d="M385.0,-53.11023622047378 L437.5,-53.11023622047378 L437.5,-58.21259842519794 L385.0,-58.21259842519794 Z" fill="#DBB75C" stroke="black" stroke-width="0.5" />
<path d="M385.0,-58.21259842519794 L445.0,-58.21259842519794 L445.0,-70.11811023622158 L385.0,-70.11811023622158 Z" fill="#99834F" stroke="black" stroke-width="0.5" />
<path d="M385.0,-70.11811023622158 L426.25,-70.11811023622158 L426.25,-71.81889763779691 L385.0,-71.81889763779691 Z" fill="#FFCE6F" stroke="black" stroke-width="0.5" />
<path d="M385.0,-71.81889763779691 L445.0,-71.81889763779691 L445.0,-84.29133858267778 L385.0,-84.29133858267778 Z" fill="#99834F" stroke="black" stroke-width="0.5" />
<path d="M385.0,-84.29133858267778 L437.5,-84.29133858267778 L437.5,-95.06299212598469 L385.0,-95.06299212598469 Z" fill="#DBB75C" stroke="black" stroke-width="0.5" />
<path d="M385.0,-95.06299212598469 L430.0,-95.06299212598469 L430.0,-97.8976377952763 L385.0,-97.8976377952763 Z" fill="#E3AB4A" stroke="black" stroke-width="0.5" />
<path d="M385.0,-97.8976377952763 L445.0,-97.8976377952763 L445.0,-109.23622047244135 L385.0,-109.23622047244135 Z" fill="#661714" stroke="black" stroke-width="0.5" />
<path d="M385.0,-109.23622047244135 L437.5,-109.23622047244135 L437.5,-117.74015748031525 L385.0,-117.74015748031525 Z" fill="#DBB75C" stroke="black" stroke-width="0.5" />
<path d="M385.0,-117.74015748031525 L445.0,-117.74015748031525 L445.0,-120.57480314960685 L385.0,-120.57480314960685 Z" fill="#661714" stroke="black" stroke-width="0.5" />
<path d="M385.0,-120.57480314960685 L426.25,-120.57480314960685 L426.25,-125.11023622047242 L385.0,-125.11023622047242 Z" fill="#FBB672" stroke="black" stroke-width="0.5" />
<path d="M385.0,-125.11023622047242 L445.0,-125.11023622047242 L445.0,-125.67716535433101 L385.0,-125.67716535433101 Z" fill="#661714" stroke="black" stroke-width="0.5" />
<path d="M385.0,-125.67716535433101 L426.25,-125.67716535433101 L426.25,-137.0157480314965 L385.0,-137.0157480314965 Z" fill="#E3AB4A" stroke="black" stroke-width="0.5" />
<path d="M385.0,-137.0157480314965 L426.25,-137.0157480314965 L426.25,-182.37007874015717 L385.0,-182.37007874015717 Z" fill="#E3AB4A" stroke="black" stroke-width="0.5" />
<path d="M385.0,-182.37007874015717 L407.5,-182.37007874015717 L407.5,-190.87401574803107 L385.0,-190.87401574803107 Z" fill="#807969" stroke="black" stroke-width="0.5" />
<path d="M385.0,-190.87401574803107 L422.5,-190.87401574803107 L422.5,-196.54330708661382 L385.0,-196.54330708661382 Z" fill="#FBB672" stroke="black" stroke-width="0.5" />
<path d="M385.0,-196.54330708661382 L407.5,-196.54330708661382 L407.5,-197.67716535432965 L385.0,-197.67716535432965 Z" fill="#807969" stroke="black" stroke-width="0.5" />
<path d="M385.0,-197.67716535432965 L422.5,-197.67716535432965 L422.5,-199.9448818897631 L385.0,-199.9448818897631 Z" fill="#DBB75C" stroke="black" stroke-width="0.5" />
<path d="M385.0,-199.9448818897631 L407.5,-199.9448818897631 L407.5,-202.77952755905426 L385.0,-202.77952755905426 Z" fill="#807969" stroke="black" stroke-width="0.5" />
<path d="M385.0,-202.77952755905426 L418.75,-202.77952755905426 L418.75,-211.28346456692816 L385.0,-211.28346456692816 Z" fill="#DBB75C" stroke="black" stroke-width="0.5" />
<path d="M385.0,-211.28346456692816 L415.0,-211.28346456692816 L415.0,-215.25196850393604 L385.0,-215.25196850393604 Z" fill="#FFCE6F" stroke="black" stroke-width="0.5" />
<path d="M385.0,-215.25196850393604 L422.5,-215.25196850393604 L422.5,-229.4251968503927 L385.0,-229.4251968503927 Z" fill="#DBB75C" stroke="black" stroke-width="0.5" />
<path d="M385.0,-229.4251968503927 L407.5,-229.4251968503927 L407.5,-237.9291338582666 L385.0,-237.9291338582666 Z" fill="#807969" stroke="black" stroke-width="0.5" />
<path d="M385.0,-237.9291338582666 L426.25,-237.9291338582666 L426.25,-246.43307086614004 L385.0,-246.43307086614004 Z" fill="#DBB75C" stroke="black" stroke-width="0.5" />
<path d="M385.0,-246.43307086614004 L422.5,-246.43307086614004 L422.5,-269.1102362204706 L385.0,-269.1102362204706 Z" fill="#DBB75C" stroke="black" stroke-width="0.5" />
<path d="M385.0,-269.1102362204706 L422.5,-269.1102362204706 L422.5,-311.6299212598401 L385.0,-311.6299212598401 Z" fill="#FBB672" stroke="black" stroke-width="0.5" />
<path d="M385.0,-311.6299212598401 L407.5,-311.6299212598401 L407.5,-313.0472440944859 L385.0,-313.0472440944859 Z" fill="#807969" stroke="black" stroke-width="0.5" />
<path d="M385.0,-313.0472440944859 L422.5,-313.0472440944859 L422.5,-316.73228346456426 L385.0,-316.73228346456426 Z" fill="#E3AB4A" stroke="black" stroke-width="0.5" />
<path d="M385.0,-316.73228346456426 L407.5,-316.73228346456426 L407.5,-339.4094488188948 L385.0,-339.4094488188948 Z" fill="#807969" stroke="black" stroke-width="0.5" />
<path d="M385.0,-339.4094488188948 L407.5,-339.4094488188948 L407.5,-367.75590551180767 L385.0,-367.75590551180767 Z" fill="#807969" stroke="black" stroke-width="0.5" />
<path d="M385.0,-367.75590551180767 L445.0,-367.75590551180767 L445.0,-370.30708661416975 L385.0,-370.30708661416975 Z" fill="#661714" stroke="black" stroke-width="0.5" />
<path d="M385.0,-370.30708661416975 L422.5,-370.30708661416975 L422.5,-372.5748031496032 L385.0,-372.5748031496032 Z" fill="#FBB672" stroke="black" stroke-width="0.5" />
<path d="M385.0,-372.5748031496032 L422.5,-372.5748031496032 L422.5,-389.58267716535056 L385.0,-389.58267716535056 Z" fill="#FBB672" stroke="black" stroke-width="0.5" />
<path d="M385.0,-389.58267716535056 L407.5,-389.58267716535056 L407.5,-391.28346456692543 L385.0,-391.28346456692543 Z" fill="#807969" stroke="black" stroke-width="0.5" />
<path d="M385.0,-391.28346456692543 L418.75,-391.28346456692543 L418.75,-392.9842519685003 L385.0,-392.9842519685003 Z" fill="#DBB75C" stroke="black" stroke-width="0.5" />
<path d="M385.0,-392.9842519685003 L407.5,-392.9842519685003 L407.5,-396.38582677165004 L385.0,-396.38582677165004 Z" fill="#807969" stroke="black" stroke-width="0.5" />
<path d="M385.0,-396.38582677165004 L445.0,-396.38582677165004 L437.5,-430.40157480314565 L385.0,-430.40157480314565 Z" fill="#D93328" stroke="black" stroke-width="0.5" />
<path d="M385.0,-430.40157480314565 L418.75,-430.40157480314565 L418.75,-464.41732283464125 L385.0,-464.41732283464125 Z" fill="#FBB672" stroke="black" stroke-width="0.5" />
<path d="M385.0,-464.41732283464125 L418.75,-464.41732283464125 L418.75,-481.42519685038906 L385.0,-481.42519685038906 Z" fill="#DBB75C" stroke="black" stroke-width="0.5" />
<path d="M385.0,-481.42519685038906 L418.75,-481.42519685038906 L418.75,-483.6929133858216 L385.0,-483.6929133858216 Z" fill="#DBB75C" stroke="black" stroke-width="0.5" />
<path d="M385.0,-483.6929133858216 L392.5,-483.6929133858216 L392.5,-509.2047244094433 L385.0,-509.2047244094433 Z" fill="#FFFFFF" stroke="black" stroke-width="0.5" />
<path d="M385.0,-509.2047244094433 L437.5,-509.2047244094433 L437.5,-534.7165354330655 L385.0,-534.7165354330655 Z" fill="#FBB672" stroke="black" stroke-width="0.5" />
<path d="M385.0,-534.7165354330655 L422.5,-534.7165354330655 L422.5,-552.8582677165296 L385.0,-552.8582677165296 Z" fill="#FBB672" stroke="black" stroke-width="0.5" />
<path d="M385.0,-552.8582677165296 L445.0,-552.8582677165296 L445.0,-561.3622047244035 L385.0,-561.3622047244035 Z" fill="#99834F" stroke="black" stroke-width="0.5" />
<path d="M385.0,-561.3622047244035 L422.5,-561.3622047244035 L422.5,-569.2992125984188 L385.0,-569.2992125984188 Z" fill="#E3AB4A" stroke="black" stroke-width="0.5" />
<path d="M385.0,-569.2992125984188 L407.5,-569.2992125984188 L407.5,-570.433070866135 L385.0,-570.433070866135 Z" fill="#807969" stroke="black" stroke-width="0.5" />
<path d="M385.0,-570.433070866135 L422.5,-570.433070866135 L422.5,-574.4015748031429 L385.0,-574.4015748031429 Z" fill="#E3AB4A" stroke="black" stroke-width="0.5" />
<path d="M385.0,-574.4015748031429 L407.5,-574.4015748031429 L407.5,-574.9685039370015 L385.0,-574.9685039370015 Z" fill="#807969" stroke="black" stroke-width="0.5" />
<path d="M385.0,-574.9685039370015 L422.5,-574.9685039370015 L422.5,-586.307086614167 L385.0,-586.307086614167 Z" fill="#E3AB4A" stroke="black" stroke-width="0.5" />
<path d="M385.0,-586.307086614167 L407.5,-586.307086614167 L407.5,-588.5748031495996 L385.0,-588.5748031495996 Z" fill="#807969" stroke="black" stroke-width="0.5" />
<path d="M385.0,-588.5748031495996 L422.5,-588.5748031495996 L422.5,-592.5433070866075 L385.0,-592.5433070866075 Z" fill="#E3AB4A" stroke="black" stroke-width="0.5" />
<path d="M385.0,-592.5433070866075 L407.5,-592.5433070866075 L407.5,-593.6771653543237 L385.0,-593.6771653543237 Z" fill="#807969" stroke="black" stroke-width="0.5" />
<path d="M385.0,-593.6771653543237 L422.5,-593.6771653543237 L422.5,-610.6850393700715 L385.0,-610.6850393700715 Z" fill="#FBB672" stroke="black" stroke-width="0.5" />
<path d="M385.0,-610.6850393700715 L407.5,-610.6850393700715 L407.5,-613.5196850393631 L385.0,-613.5196850393631 Z" fill="#807969" stroke="black" stroke-width="0.5" />
<path d="M385.0,-613.5196850393631 L422.5,-613.5196850393631 L422.5,-627.6929133858193 L385.0,-627.6929133858193 Z" fill="#FBB672" stroke="black" stroke-width="0.5" />
<path d="M385.0,-627.6929133858193 L407.5,-627.6929133858193 L407.5,-629.1102362204651 L385.0,-629.1102362204651 Z" fill="#807969" stroke="black" stroke-width="0.5" />
<path d="M385.0,-629.1102362204651 L437.5,-629.1102362204651 L437.5,-640.4488188976302 L385.0,-640.4488188976302 Z" fill="#FBB672" stroke="black" stroke-width="0.5" />
<path d="M385.0,-640.4488188976302 L422.5,-640.4488188976302 L422.5,-725.4881889763697 L385.0,-725.4881889763697 Z" fill="#E3AB4A" stroke="black" stroke-width="0.5" />
<path d="M385.0,-725.4881889763697 L445.0,-725.4881889763697 L445.0,-727.1889763779441 L385.0,-727.1889763779441 Z" fill="#661714" stroke="black" stroke-width="0.5" />
<path d="M385.0,-727.1889763779441 L422.5,-727.1889763779441 L422.5,-761.2047244094397 L385.0,-761.2047244094397 Z" fill="#E3AB4A" stroke="black" stroke-width="0.5" />
<path d="M40,-40.0 L35,-40.0" fill="none" stroke="black" stroke-width="0.5" />
<text x="34" y="-40.0" font-size="9" text-anchor="end" dy="0em">0</text>
<path d="M40,-153.38582677165198 L35,-153.38582677165198" fill="none" stroke="black" stroke-width="0.5" />
<text x="34" y="-153.38582677165198" font-size="9" text-anchor="end" dy="0em">20</text>
<path d="M40,-266.77165354330396 L35,-266.77165354330396" fill="none" stroke="black" stroke-width="0.5" />
<text x="34" y="-266.77165354330396" font-size="9" text-anchor="end" dy="0em">40</text>
<path d="M40,-380.157480314956 L35,-380.157480314956" fill="none" stroke="black" stroke-width="0.5" />
<text x="34" y="-380.157480314956" font-size="9" text-anchor="end" dy="0em">60</text>
<path d="M40,-493.54330708660797 L35,-493.54330708660797" fill="none" stroke="black" stroke-width="0.5" />
<text x="34" y="-493.54330708660797" font-size="9" text-anchor="end" dy="0em">80</text>
<path d="M40,-606.92913385826 L35,-606.92913385826" fill="none" stroke="black" stroke-width="0.5" />
<text x="34" y="-606.92913385826" font-size="9" text-anchor="end" dy="0em">100</text>
<path d="M40,-720.314960629912 L35,-720.314960629912" fill="none" stroke="black" stroke-width="0.5" />
<text x="34" y="-720.314960629912" font-size="9" text-anchor="end" dy="0em">120</text>
<path d="M155.0,-86.70078740157487 L150.0,-86.70078740157487" fill="none" stroke="black" stroke-width="0.5" />
<text x="149.0" y="-86.70078740157487" font-size="9" text-anchor="end" dy="0em">140</text>
<path d="M155.0,-200.08661417322685 L150.0,-200.08661417322685" fill="none" stroke="black" stroke-width="0.5" />
<text x="149.0" y="-200.08661417322685" font-size="9" text-anchor="end" dy="0em">160</text>
<path d="M155.0,-313.4724409448788 L150.0,-313.4724409448788" fill="none" stroke="black" stroke-width="0.5" />
<text x="149.0" y="-313.4724409448788" font-size="9" text-anchor="end" dy="0em">180</text>
<path d="M155.0,-426.8582677165309 L150.0,-426.8582677165309" fill="none" stroke="black" stroke-width="0.5" />
<text x="149.0" y="-426.8582677165309" font-size="9" text-anchor="end" dy="0em">200</text>
<path d="M155.0,-540.2440944881828 L150.0,-540.2440944881828" fill="none" stroke="black" stroke-width="0.5" />
<text x="149.0" y="-540.2440944881828" font-size="9" text-anchor="end" dy="0em">220</text>
<path d="M155.0,-653.6299212598349 L150.0,-653.6299212598349" fill="none" stroke="black" stroke-width="0.5" />
<text x="149.0" y="-653.6299212598349" font-size="9" text-anchor="end" dy="0em">240</text>
<path d="M155.0,-767.0157480314867 L150.0,-767.0157480314867" fill="none" stroke="black" stroke-width="0.5" />
<text x="149.0" y="-767.0157480314867" font-size="9" text-anchor="end" dy="0em">260</text>
<path d="M270.0,-133.40157480314974 L265.0,-133.40157480314974" fill="none" stroke="black" stroke-width="0.5" />
<text x="264.0" y="-133.40157480314974" font-size="9" text-anchor="end" dy="0em">280</text>
<path d="M270.0,-246.7874015748016 L265.0,-246.7874015748016" fill="none" stroke="black" stroke-width="0.5" />
<text x="264.0" y="-246.7874015748016" font-size="9" text-anchor="end" dy="0em">300</text>
<path d="M270.0,-360.1732283464537 L265.0,-360.1732283464537" fill="none" stroke="black" stroke-width="0.5" />
<text x="264.0" y="-360.1732283464537" font-size="9" text-anchor="end" dy="0em">320</text>
<path d="M270.0,-473.5590551181058 L265.0,-473.5590551181058" fill="none" stroke="black" stroke-width="0.5" />
<text x="264.0" y="-473.5590551181058" font-size="9" text-anchor="end" dy="0em">340</text>
<path d="M270.0,-586.9448818897577 L265.0,-586.9448818897577" fill="none" stroke="black" stroke-width="0.5" />
<text x="264.0" y="-586.9448818897577" font-size="9" text-anchor="end" dy="0em">360</text>
<path d="M270.0,-700.3307086614095 L265.0,-700.3307086614095" fill="none" stroke="black" stroke-width="0.5" />
<text x="264.0" y="-700.3307086614095" font-size="9" text-anchor="end" dy="0em">380</text>
<path d="M385.0,-66.71653543307275 L380.0,-66.71653543307275" fill="none" stroke="black" stroke-width="0.5" />
<text x="379.0" y="-66.71653543307275" font-size="9" text-anchor="end" dy="0em">400</text>
<path d="M385.0,-180.1023622047246 L380.0,-180.1023622047246" fill="none" stroke="black" stroke-width="0.5" />
<text x="379.0" y="-180.1023622047246" font-size="9" text-anchor="end" dy="0em">420</text>
<path d="M385.0,-293.4881889763765 L380.0,-293.4881889763765" fill="none" stroke="black" stroke-width="0.5" />
<text x="379.0" y="-293.4881889763765" font-size="9" text-anchor="end" dy="0em">440</text>
<path d="M385.0,-406.87401574802834 L380.0,-406.87401574802834" fill="none" stroke="black" stroke-width="0.5" />
<text x="379.0" y="-406.87401574802834" font-size="9" text-anchor="end" dy="0em">460</text>
<path d="M385.0,-520.2598425196807 L380.0,-520.2598425196807" fill="none" stroke="black" stroke-width="0.5" />
<text x="379.0" y="-520.2598425196807" font-size="9" text-anchor="end" dy="0em">480</text>
<path d="M385.0,-633.6456692913325 L380.0,-633.6456692913325" fill="none" stroke="black" stroke-width="0.5" />
<text x="379.0" y="-633.6456692913325" font-size="9" text-anchor="end" dy="0em">500</text>
<path d="M385.0,-747.0314960629844 L380.0,-747.0314960629844" fill="none" stroke="black" stroke-width="0.5" />
<text x="379.0" y="-747.0314960629844" font-size="9" text-anchor="end" dy="0em">520</text>
<path d="M47.5,-40 L47.5,-35" fill="none" stroke="black" stroke-width="0.5" />
<text font-size="9" text-anchor="start"><textPath xlink:href="#d79" startOffset="0">
<tspan dy="0.4em">NaN</tspan>
</textPath></text>
<path d="M55.0,-40 L55.0,-25" fill="none" stroke="black" stroke-width="0.5" />
<text font-size="9" text-anchor="start"><textPath xlink:href="#d80" startOffset="0">
<tspan dy="0.4em">cl</tspan>
</textPath></text>
<path d="M62.5,-40 L62.5,-35" fill="none" stroke="black" stroke-width="0.5" />
<text font-size="9" text-anchor="start"><textPath xlink:href="#d81" startOffset="0">
<tspan dy="0.4em">si</tspan>
</textPath></text>
<path d="M70.0,-40 L70.0,-25" fill="none" stroke="black" stroke-width="0.5" />
<text font-size="9" text-anchor="start"><textPath xlink:href="#d82" startOffset="0">
<tspan dy="0.4em">vf</tspan>
</textPath></text>
<path d="M73.75,-40 L73.75,-35" fill="none" stroke="black" stroke-width="0.5" />
<text font-size="9" text-anchor="start"><textPath xlink:href="#d83" startOffset="0">
<tspan dy="0.4em">f</tspan>
</textPath></text>
<path d="M77.5,-40 L77.5,-25" fill="none" stroke="black" stroke-width="0.5" />
<text font-size="9" text-anchor="start"><textPath xlink:href="#d84" startOffset="0">
<tspan dy="0.4em">m</tspan>
</textPath></text>
<path d="M81.25,-40 L81.25,-35" fill="none" stroke="black" stroke-width="0.5" />
<text font-size="9" text-anchor="start"><textPath xlink:href="#d85" startOffset="0">
<tspan dy="0.4em">c</tspan>
</textPath></text>
<path d="M85.0,-40 L85.0,-25" fill="none" stroke="black" stroke-width="0.5" />
<text font-size="9" text-anchor="start"><textPath xlink:href="#d86" startOffset="0">
<tspan dy="0.4em">vc</tspan>
</textPath></text>
<path d="M92.5,-40 L92.5,-35" fill="none" stroke="black" stroke-width="0.5" />
<text font-size="9" text-anchor="start"><textPath xlink:href="#d87" startOffset="0">
<tspan dy="0.4em">gr</tspan>
</textPath></text>
<path d="M100.0,-40 L100.0,-25" fill="none" stroke="black" stroke-width="0.5" />
<text font-size="9" text-anchor="start"><textPath xlink:href="#d88" startOffset="0">
<tspan dy="0.4em">pebb</tspan>
</textPath></text>
<path d="M107.5,-40 L107.5,-35" fill="none" stroke="black" stroke-width="0.5" />
<text font-size="9" text-anchor="start"><textPath xlink:href="#d89" startOffset="0">
<tspan dy="0.4em">cobb</tspan>
</textPath></text>
<path d="M115.0,-40 L115.0,-25" fill="none" stroke="black" stroke-width="0.5" />
<text font-size="9" text-anchor="start"><textPath xlink:href="#d90" startOffset="0">
<tspan dy="0.4em">boul</tspan>
</textPath></text>
<path d="M115.0,-40 L40.0,-40 L40.0,-786.9999999999891" fill="none" stroke="black" stroke-width="0.5" />
<path d="M162.5,-40 L162.5,-35" fill="none" stroke="black" stroke-width="0.5" />
<text font-size="9" text-anchor="start"><textPath xlink:href="#d91" startOffset="0">
<tspan dy="0.4em">NaN</tspan>
</textPath></text>
<path d="M170.0,-40 L170.0,-25" fill="none" stroke="black" stroke-width="0.5" />
<text font-size="9" text-anchor="start"><textPath xlink:href="#d92" startOffset="0">
<tspan dy="0.4em">cl</tspan>
</textPath></text>
<path d="M177.5,-40 L177.5,-35" fill="none" stroke="black" stroke-width="0.5" />
<text font-size="9" text-anchor="start"><textPath xlink:href="#d93" startOffset="0">
<tspan dy="0.4em">si</tspan>
</textPath></text>
<path d="M185.0,-40 L185.0,-25" fill="none" stroke="black" stroke-width="0.5" />
<text font-size="9" text-anchor="start"><textPath xlink:href="#d94" startOffset="0">
<tspan dy="0.4em">vf</tspan>
</textPath></text>
<path d="M188.75,-40 L188.75,-35" fill="none" stroke="black" stroke-width="0.5" />
<text font-size="9" text-anchor="start"><textPath xlink:href="#d95" startOffset="0">
<tspan dy="0.4em">f</tspan>
</textPath></text>
<path d="M192.5,-40 L192.5,-25" fill="none" stroke="black" stroke-width="0.5" />
<text font-size="9" text-anchor="start"><textPath xlink:href="#d96" startOffset="0">
<tspan dy="0.4em">m</tspan>
</textPath></text>
<path d="M196.25,-40 L196.25,-35" fill="none" stroke="black" stroke-width="0.5" />
<text font-size="9" text-anchor="start"><textPath xlink:href="#d97" startOffset="0">
<tspan dy="0.4em">c</tspan>
</textPath></text>
<path d="M200.0,-40 L200.0,-25" fill="none" stroke="black" stroke-width="0.5" />
<text font-size="9" text-anchor="start"><textPath xlink:href="#d98" startOffset="0">
<tspan dy="0.4em">vc</tspan>
</textPath></text>
<path d="M207.5,-40 L207.5,-35" fill="none" stroke="black" stroke-width="0.5" />
<text font-size="9" text-anchor="start"><textPath xlink:href="#d99" startOffset="0">
<tspan dy="0.4em">gr</tspan>
</textPath></text>
<path d="M215.0,-40 L215.0,-25" fill="none" stroke="black" stroke-width="0.5" />
<text font-size="9" text-anchor="start"><textPath xlink:href="#d100" startOffset="0">
<tspan dy="0.4em">pebb</tspan>
</textPath></text>
<path d="M222.5,-40 L222.5,-35" fill="none" stroke="black" stroke-width="0.5" />
<text font-size="9" text-anchor="start"><textPath xlink:href="#d101" startOffset="0">
<tspan dy="0.4em">cobb</tspan>
</textPath></text>
<path d="M230.0,-40 L230.0,-25" fill="none" stroke="black" stroke-width="0.5" />
<text font-size="9" text-anchor="start"><textPath xlink:href="#d102" startOffset="0">
<tspan dy="0.4em">boul</tspan>
</textPath></text>
<path d="M230.0,-40 L155.0,-40 L155.0,-786.9999999999891" fill="none" stroke="black" stroke-width="0.5" />
<path d="M277.5,-40 L277.5,-35" fill="none" stroke="black" stroke-width="0.5" />
<text font-size="9" text-anchor="start"><textPath xlink:href="#d103" startOffset="0">
<tspan dy="0.4em">NaN</tspan>
</textPath></text>
<path d="M285.0,-40 L285.0,-25" fill="none" stroke="black" stroke-width="0.5" />
<text font-size="9" text-anchor="start"><textPath xlink:href="#d104" startOffset="0">
<tspan dy="0.4em">cl</tspan>
</textPath></text>
<path d="M292.5,-40 L292.5,-35" fill="none" stroke="black" stroke-width="0.5" />
<text font-size="9" text-anchor="start"><textPath xlink:href="#d105" startOffset="0">
<tspan dy="0.4em">si</tspan>
</textPath></text>
<path d="M300.0,-40 L300.0,-25" fill="none" stroke="black" stroke-width="0.5" />
<text font-size="9" text-anchor="start"><textPath xlink:href="#d106" startOffset="0">
<tspan dy="0.4em">vf</tspan>
</textPath></text>
<path d="M303.75,-40 L303.75,-35" fill="none" stroke="black" stroke-width="0.5" />
<text font-size="9" text-anchor="start"><textPath xlink:href="#d107" startOffset="0">
<tspan dy="0.4em">f</tspan>
</textPath></text>
<path d="M307.5,-40 L307.5,-25" fill="none" stroke="black" stroke-width="0.5" />
<text font-size="9" text-anchor="start"><textPath xlink:href="#d108" startOffset="0">
<tspan dy="0.4em">m</tspan>
</textPath></text>
<path d="M311.25,-40 L311.25,-35" fill="none" stroke="black" stroke-width="0.5" />
<text font-size="9" text-anchor="start"><textPath xlink:href="#d109" startOffset="0">
<tspan dy="0.4em">c</tspan>
</textPath></text>
<path d="M315.0,-40 L315.0,-25" fill="none" stroke="black" stroke-width="0.5" />
<text font-size="9" text-anchor="start"><textPath xlink:href="#d110" startOffset="0">
<tspan dy="0.4em">vc</tspan>
</textPath></text>
<path d="M322.5,-40 L322.5,-35" fill="none" stroke="black" stroke-width="0.5" />
<text font-size="9" text-anchor="start"><textPath xlink:href="#d111" startOffset="0">
<tspan dy="0.4em">gr</tspan>
</textPath></text>
<path d="M330.0,-40 L330.0,-25" fill="none" stroke="black" stroke-width="0.5" />
<text font-size="9" text-anchor="start"><textPath xlink:href="#d112" startOffset="0">
<tspan dy="0.4em">pebb</tspan>
</textPath></text>
<path d="M337.5,-40 L337.5,-35" fill="none" stroke="black" stroke-width="0.5" />
<text font-size="9" text-anchor="start"><textPath xlink:href="#d113" startOffset="0">
<tspan dy="0.4em">cobb</tspan>
</textPath></text>
<path d="M345.0,-40 L345.0,-25" fill="none" stroke="black" stroke-width="0.5" />
<text font-size="9" text-anchor="start"><textPath xlink:href="#d114" startOffset="0">
<tspan dy="0.4em">boul</tspan>
</textPath></text>
<path d="M345.0,-40 L270.0,-40 L270.0,-786.9999999999891" fill="none" stroke="black" stroke-width="0.5" />
<path d="M392.5,-40 L392.5,-35" fill="none" stroke="black" stroke-width="0.5" />
<text font-size="9" text-anchor="start"><textPath xlink:href="#d115" startOffset="0">
<tspan dy="0.4em">NaN</tspan>
</textPath></text>
<path d="M400.0,-40 L400.0,-25" fill="none" stroke="black" stroke-width="0.5" />
<text font-size="9" text-anchor="start"><textPath xlink:href="#d116" startOffset="0">
<tspan dy="0.4em">cl</tspan>
</textPath></text>
<path d="M407.5,-40 L407.5,-35" fill="none" stroke="black" stroke-width="0.5" />
<text font-size="9" text-anchor="start"><textPath xlink:href="#d117" startOffset="0">
<tspan dy="0.4em">si</tspan>
</textPath></text>
<path d="M415.0,-40 L415.0,-25" fill="none" stroke="black" stroke-width="0.5" />
<text font-size="9" text-anchor="start"><textPath xlink:href="#d118" startOffset="0">
<tspan dy="0.4em">vf</tspan>
</textPath></text>
<path d="M418.75,-40 L418.75,-35" fill="none" stroke="black" stroke-width="0.5" />
<text font-size="9" text-anchor="start"><textPath xlink:href="#d119" startOffset="0">
<tspan dy="0.4em">f</tspan>
</textPath></text>
<path d="M422.5,-40 L422.5,-25" fill="none" stroke="black" stroke-width="0.5" />
<text font-size="9" text-anchor="start"><textPath xlink:href="#d120" startOffset="0">
<tspan dy="0.4em">m</tspan>
</textPath></text>
<path d="M426.25,-40 L426.25,-35" fill="none" stroke="black" stroke-width="0.5" />
<text font-size="9" text-anchor="start"><textPath xlink:href="#d121" startOffset="0">
<tspan dy="0.4em">c</tspan>
</textPath></text>
<path d="M430.0,-40 L430.0,-25" fill="none" stroke="black" stroke-width="0.5" />
<text font-size="9" text-anchor="start"><textPath xlink:href="#d122" startOffset="0">
<tspan dy="0.4em">vc</tspan>
</textPath></text>
<path d="M437.5,-40 L437.5,-35" fill="none" stroke="black" stroke-width="0.5" />
<text font-size="9" text-anchor="start"><textPath xlink:href="#d123" startOffset="0">
<tspan dy="0.4em">gr</tspan>
</textPath></text>
<path d="M445.0,-40 L445.0,-25" fill="none" stroke="black" stroke-width="0.5" />
<text font-size="9" text-anchor="start"><textPath xlink:href="#d124" startOffset="0">
<tspan dy="0.4em">pebb</tspan>
</textPath></text>
<path d="M452.5,-40 L452.5,-35" fill="none" stroke="black" stroke-width="0.5" />
<text font-size="9" text-anchor="start"><textPath xlink:href="#d125" startOffset="0">
<tspan dy="0.4em">cobb</tspan>
</textPath></text>
<path d="M460.0,-40 L460.0,-25" fill="none" stroke="black" stroke-width="0.5" />
<text font-size="9" text-anchor="start"><textPath xlink:href="#d126" startOffset="0">
<tspan dy="0.4em">boul</tspan>
</textPath></text>
<path d="M460.0,-40 L385.0,-40 L385.0,-786.9999999999891" fill="none" stroke="black" stroke-width="0.5" />
</svg>